# This file uses centimeters as units for non-parametric coordinates.

mtllib broccoli.mtl
g default
v -33.893709 4.661308 7.983656
v -27.365784 1.685050 7.983656
v -22.407844 3.852347 7.983656
v -33.914993 5.985764 5.821793
v -27.365784 5.985764 9.333482
v -22.407844 5.985764 7.983656
v -30.561389 8.389236 6.260172
v -27.365784 10.286477 7.983656
v -24.170178 8.389236 6.813344
v -32.514679 14.389472 2.217992
v -27.896587 12.350382 0.938391
v -19.489991 13.420678 3.663700
v -34.345072 16.513212 -5.398005
v -27.896587 13.562541 -6.152577
v -20.153247 11.779059 -3.477606
v -37.000297 5.984513 -6.487546
v -27.365784 5.985764 -3.014984
v -19.083452 5.851183 -1.727985
v -34.621824 -1.060040 -5.511568
v -27.995471 -5.516642 -2.792522
v -19.521270 -2.342511 -3.299378
v -33.813711 -0.720168 1.684951
v -27.365784 -3.033347 3.581984
v -19.581020 -0.552176 3.498225
v -20.116255 6.156462 4.077206
v -36.192184 5.985764 0.708972
v -24.958773 17.303915 -0.003441
v -15.917291 14.899315 0.406652
v -15.158937 16.230834 -4.150591
v -25.512128 18.791021 -3.957072
v -14.839649 0.513762 -3.581967
v -14.489962 3.241579 0.735744
v -13.175002 5.848269 -1.087123
v -13.915439 6.593015 1.802149
v -39.040011 7.880992 -4.159052
v -37.724507 8.340023 0.836683
v -37.308173 11.667301 -0.117753
v -38.112815 12.803815 -4.019306
v -26.332234 14.075510 -6.987576
v -17.548740 15.243021 -3.376748
v -24.754113 17.122152 -4.978522
v -16.854901 15.118996 -5.279186
v -18.005523 6.154060 -3.547942
v -20.024607 -0.614848 -4.445261
v -15.420962 6.043509 -3.356873
v -18.004187 1.681803 -3.334292
v -34.130076 12.797907 -6.957828
v -30.916679 11.517280 -7.174792
v -30.867184 0.761630 -5.629075
v -34.574244 5.820567 -7.150224
v -27.762318 -2.958734 -4.365166
v -33.388086 -0.142065 -6.673633
v -20.358836 0.778854 -4.562305
v -20.358836 -1.924127 -4.618182
v -17.784631 3.170682 4.254740
v -17.888889 6.660033 4.160134
v -14.655029 5.407898 2.225636
v -14.310535 7.088601 2.691910
v -17.801796 10.135835 5.002574
v -15.572513 11.317456 2.817734
v -33.089878 -1.628535 4.348823
v -28.965732 -3.108063 5.562180
v -28.965732 -0.090138 8.377525
v -32.136869 1.296082 8.377525
v -33.067912 -2.789670 -3.219000
v -27.872960 -7.293567 -1.453610
v -27.417641 -4.810273 2.597383
v -32.483576 -2.449799 1.354382
v -21.341856 -4.166731 -1.738279
v -21.385065 -2.376396 2.581593
v -27.324218 3.684798 -13.506741
v -25.048592 2.477391 -13.506741
v -22.772974 3.684798 -13.506741
v -28.428448 5.492754 -13.506741
v -21.668751 5.492754 -13.506741
v -27.324218 7.300710 -13.506741
v -25.048592 8.508116 -13.506741
v -22.772974 7.300710 -13.506741
v -27.437655 7.012232 -18.034625
v -25.615637 8.026986 -18.034625
v -23.793619 7.012232 -18.034625
v -27.307994 7.300710 -25.488517
v -25.048592 8.508116 -25.217271
v -22.789190 7.300710 -24.946025
v -28.404348 5.492754 -25.620135
v -25.048592 5.492754 -25.217271
v -21.692838 5.492754 -24.814407
v -27.307994 3.684798 -25.488517
v -25.048592 2.477391 -25.217271
v -22.789190 3.684798 -24.946025
v -27.437655 3.973276 -18.034625
v -25.615637 2.958522 -18.034625
v -23.793619 3.973276 -18.034625
v -22.909504 5.492754 -18.034625
v -28.321772 5.492754 -18.034625
v -27.029480 3.985491 -11.676782
v -25.048592 2.978895 -11.676782
v -25.048592 5.492754 -9.022019
v -27.990685 5.492754 -11.676782
v -23.067709 3.985491 -11.676782
v -22.106501 5.492754 -11.676782
v -25.048592 8.006613 -11.676782
v -27.029480 7.000018 -11.676782
v -23.067709 7.000018 -11.676782
v -23.542964 5.189841 -5.036887
v -20.705293 5.189841 -5.036887
v -21.632383 7.060347 -5.036887
v -23.542964 8.309525 -5.036887
v -30.930864 5.566709 -5.418095
v -30.023840 3.538295 -5.418096
v -28.442836 5.492753 -5.418096
v -30.730234 7.343081 -5.418095
v -27.850689 3.075086 -5.418096
v -26.155440 3.642427 -5.418096
v -26.861830 7.447212 -5.418096
v -29.034982 7.910423 -5.418096
v -32.571704 5.583023 -2.873929
v -31.464595 3.107154 -2.873929
v -29.534833 5.492753 -2.873929
v -32.326814 7.751251 -2.873929
v -28.812061 2.541764 -2.873929
v -26.742848 3.234257 -2.873929
v -27.605066 7.878353 -2.873929
v -30.257599 8.443745 -2.873929
v -23.163290 5.607248 -2.264701
v -21.084968 5.607248 -2.264701
v -21.763971 6.977214 -2.264701
v -23.163290 7.892118 -2.264701
vt 0.375000 0.000000
vt 0.500000 0.000000
vt 0.625000 0.000000
vt 0.375000 0.125000
vt 0.500000 0.125000
vt 0.625000 0.125000
vt 0.375000 0.250000
vt 0.500000 0.250000
vt 0.625000 0.250000
vt 0.375000 0.375000
vt 0.500000 0.375000
vt 0.625000 0.375000
vt 0.375000 0.500000
vt 0.500000 0.500000
vt 0.625000 0.500000
vt 0.375000 0.625000
vt 0.500000 0.625000
vt 0.625000 0.625000
vt 0.375000 0.750000
vt 0.500000 0.750000
vt 0.625000 0.750000
vt 0.375000 0.875000
vt 0.500000 0.875000
vt 0.625000 0.875000
vt 0.375000 1.000000
vt 0.500000 1.000000
vt 0.625000 1.000000
vt 0.875000 0.000000
vt 0.750000 0.000000
vt 0.875000 0.125000
vt 0.750000 0.125000
vt 0.875000 0.250000
vt 0.750000 0.250000
vt 0.125000 0.000000
vt 0.250000 0.000000
vt 0.125000 0.125000
vt 0.250000 0.125000
vt 0.125000 0.250000
vt 0.250000 0.250000
vt 0.500000 0.375000
vt 0.625000 0.375000
vt 0.625000 0.500000
vt 0.500000 0.500000
vt 0.750000 0.000000
vt 0.875000 0.000000
vt 0.875000 0.125000
vt 0.750000 0.125000
vt 0.875000 0.250000
vt 0.750000 0.250000
vt 0.125000 0.125000
vt 0.250000 0.125000
vt 0.250000 0.250000
vt 0.125000 0.250000
vt 0.625000 0.500000
vt 0.500000 0.500000
vt 0.500000 0.500000
vt 0.625000 0.500000
vt 0.875000 0.000000
vt 0.875000 0.125000
vt 0.875000 0.125000
vt 0.875000 0.000000
vt 0.875000 0.250000
vt 0.875000 0.250000
vt 0.375000 0.500000
vt 0.500000 0.500000
vt 0.500000 0.625000
vt 0.375000 0.625000
vt 0.500000 0.750000
vt 0.375000 0.750000
vt 0.625000 0.625000
vt 0.625000 0.750000
vt 0.750000 0.125000
vt 0.750000 0.000000
vt 0.750000 0.000000
vt 0.750000 0.125000
vt 0.750000 0.250000
vt 0.750000 0.250000
vt 0.375000 0.875000
vt 0.500000 0.875000
vt 0.500000 1.000000
vt 0.375000 1.000000
vt 0.375000 0.750000
vt 0.500000 0.750000
vt 0.500000 0.875000
vt 0.375000 0.875000
vt 0.625000 0.750000
vt 0.625000 0.875000
vt 0.375000 0.000000
vt 0.500000 0.000000
vt 0.500000 0.125000
vt 0.375000 0.125000
vt 0.625000 0.000000
vt 0.625000 0.125000
vt 0.500000 0.125000
vt 0.500000 0.250000
vt 0.375000 0.250000
vt 0.500000 0.125000
vt 0.625000 0.125000
vt 0.625000 0.250000
vt 0.500000 0.250000
vt 0.375000 0.250000
vt 0.500000 0.250000
vt 0.500000 0.375000
vt 0.375000 0.375000
vt 0.625000 0.250000
vt 0.625000 0.375000
vt 0.500000 0.500000
vt 0.375000 0.500000
vt 0.625000 0.500000
vt 0.500000 0.625000
vt 0.375000 0.625000
vt 0.625000 0.625000
vt 0.500000 0.750000
vt 0.375000 0.750000
vt 0.625000 0.750000
vt 0.500000 0.875000
vt 0.375000 0.875000
vt 0.625000 0.875000
vt 0.500000 1.000000
vt 0.375000 1.000000
vt 0.625000 1.000000
vt 0.750000 0.000000
vt 0.875000 0.000000
vt 0.875000 0.125000
vt 0.750000 0.125000
vt 0.625000 0.000000
vt 0.625000 0.125000
vt 0.875000 0.250000
vt 0.750000 0.250000
vt 0.125000 0.000000
vt 0.250000 0.000000
vt 0.250000 0.125000
vt 0.125000 0.125000
vt 0.375000 0.000000
vt 0.375000 0.125000
vt 0.250000 0.250000
vt 0.125000 0.250000
vt 0.500000 0.000000
vt 0.500000 0.000000
vt 0.375000 0.000000
vt 0.375000 0.125000
vt 0.625000 0.000000
vt 0.625000 0.125000
vt 0.375000 0.250000
vt 0.500000 0.250000
vt 0.625000 0.250000
vt 0.625000 0.125000
vt 0.500000 0.125000
vt 0.625000 0.250000
vt 0.500000 0.250000
vt 0.500000 0.000000
vt 0.375000 0.000000
vt 0.375000 0.125000
vt 0.625000 0.000000
vt 0.625000 0.125000
vt 0.500000 0.125000
vt 0.500000 0.250000
vt 0.375000 0.250000
vn -0.227378 0.138291 0.963937
vn -0.040351 -0.021777 0.998948
vn -0.075167 0.190213 0.978861
vn -0.333430 0.223488 0.915903
vn 0.175345 -0.202141 0.963532
vn 0.260106 0.042693 0.964636
vn -0.135379 0.418364 0.898134
vn -0.495112 0.355449 0.792792
vn 0.355022 0.409276 0.840507
vn -0.018924 0.806551 0.590862
vn -0.017833 0.817599 0.575511
vn 0.209093 0.897093 0.389236
vn 0.315181 0.904887 0.286078
vn -0.017191 0.823929 0.566433
vn -0.017191 0.823929 0.566433
vn 0.409392 0.907228 -0.096621
vn 0.405434 0.905514 -0.125170
vn 0.232449 0.921608 0.310816
vn 0.232449 0.921608 0.310816
vn 0.238433 0.965748 0.102370
vn 0.238435 0.967784 0.080893
vn 0.115045 -0.078135 -0.990282
vn 0.115045 -0.078135 -0.990282
vn 0.236379 -0.060784 -0.969758
vn 0.138059 -0.071491 -0.987840
vn 0.192334 -0.313704 -0.929837
vn 0.192334 -0.313704 -0.929837
vn 0.192334 -0.313704 -0.929837
vn 0.192334 -0.313704 -0.929837
vn 0.083897 -0.145532 -0.985790
vn 0.381851 0.003091 -0.924219
vn 0.054134 -0.159224 -0.985757
vn 0.054134 -0.159224 -0.985757
vn -0.589796 -0.743766 0.314569
vn -0.140000 -0.900809 0.411026
vn -0.038823 -0.907055 0.419218
vn -0.589796 -0.743766 0.314569
vn 0.377951 -0.831983 0.406150
vn 0.377951 -0.831983 0.406150
vn -0.371193 -0.674932 0.637716
vn -0.371194 -0.674932 0.637716
vn -0.371194 -0.674932 0.637716
vn -0.371194 -0.674932 0.637716
vn 0.237888 -0.638933 0.731556
vn 0.237888 -0.638933 0.731556
vn 0.237888 -0.638933 0.731556
vn 0.237888 -0.638933 0.731556
vn 0.924020 -0.322446 0.205464
vn 0.739202 -0.663840 -0.113566
vn 0.978659 0.035037 -0.202481
vn 0.965866 0.144954 0.214690
vn 0.857660 0.018266 0.513892
vn 0.857660 0.018266 0.513892
vn 0.742593 0.117796 0.659302
vn 0.748564 0.113365 0.653299
vn 0.945437 0.106075 -0.308053
vn 0.944779 0.251594 0.209985
vn 0.620766 0.197255 0.758775
vn 0.620766 0.197255 0.758775
vn -0.944106 -0.324609 -0.057384
vn -0.948660 -0.274454 0.157221
vn -0.950774 -0.106357 0.291062
vn -0.941295 -0.326119 -0.087237
vn -0.947055 -0.178811 0.266672
vn -0.883685 0.112165 0.454445
vn -0.953867 0.179129 0.240938
vn -0.953867 0.179129 0.240938
vn -0.953867 0.179129 0.240938
vn -0.953867 0.179129 0.240938
vn -0.727599 0.369187 0.578187
vn -0.727599 0.369187 0.578187
vn -0.094793 0.609673 0.786964
vn -0.094793 0.609673 0.786964
vn -0.094793 0.609673 0.786964
vn -0.094793 0.609673 0.786964
vn -0.190972 -0.116558 -0.974651
vn 0.188096 -0.110620 -0.975901
vn 0.188096 -0.110620 -0.975901
vn -0.230865 -0.116194 -0.966023
vn -0.864218 0.503115 -0.001480
vn -0.883446 0.443009 0.152532
vn -0.883446 0.443009 0.152532
vn -0.875264 0.479459 0.063504
vn 0.598465 -0.747503 0.288234
vn 0.640859 -0.765516 0.057320
vn 0.598465 -0.747503 0.288234
vn 0.291763 -0.045555 -0.955405
vn -0.153861 -0.088911 -0.984084
vn -0.226520 -0.094512 -0.969410
vn 0.291763 -0.045555 -0.955405
vn 0.515731 -0.050667 0.855251
vn 0.487019 -0.085118 0.869234
vn 0.487019 -0.085118 0.869234
vn 0.516882 -0.049254 0.854638
vn 0.537057 -0.024071 0.843202
vn 0.537057 -0.024071 0.843202
vn -0.712529 -0.685425 0.149983
vn -0.712529 -0.685425 0.149983
vn -0.712529 -0.685425 0.149983
vn -0.712529 -0.685425 0.149983
vn -0.332415 0.071547 0.940416
vn -0.332415 0.071547 0.940416
vn -0.332415 0.071547 0.940416
vn -0.332415 0.071547 0.940416
vn -0.588556 0.732549 0.342014
vn -0.588556 0.732549 0.342014
vn -0.588556 0.732549 0.342014
vn -0.588556 0.732549 0.342014
vn -0.570340 0.195700 -0.797756
vn -0.570340 0.195700 -0.797756
vn -0.570340 0.195700 -0.797756
vn -0.570340 0.195700 -0.797756
vn 0.299067 -0.467104 -0.832090
vn 0.299067 -0.467104 -0.832090
vn 0.299067 -0.467104 -0.832090
vn 0.299067 -0.467104 -0.832090
vn -0.337247 0.549781 -0.764203
vn -0.337247 0.549781 -0.764203
vn 0.123376 0.580630 -0.804765
vn 0.123376 0.580630 -0.804765
vn -0.982280 0.173134 -0.071769
vn -0.791918 0.037736 -0.609460
vn -0.703957 0.002438 -0.710238
vn -0.982280 0.173134 -0.071769
vn 0.282830 0.006401 -0.959149
vn 0.365857 0.076217 -0.927545
vn 0.179904 -0.076328 -0.980718
vn -0.324014 -0.111968 -0.939403
vn -0.324014 -0.111968 -0.939403
vn 0.661076 -0.075168 -0.746544
vn 0.661077 -0.075168 -0.746544
vn 0.072826 0.378188 -0.922860
vn 0.072826 0.378188 -0.922860
vn 0.621340 -0.175419 -0.763652
vn 0.621340 -0.175419 -0.763652
vn 0.621340 -0.175419 -0.763652
vn 0.621340 -0.175419 -0.763652
vn -0.497580 0.150649 -0.854236
vn -0.497580 0.150649 -0.854236
vn -0.497580 0.150649 -0.854236
vn -0.497580 0.150649 -0.854236
vn -0.002982 -0.710329 -0.703863
vn -0.097071 -0.643493 -0.759272
vn -0.035951 -0.608518 -0.792725
vn -0.035951 -0.608518 -0.792725
vn -0.401375 -0.209568 -0.891616
vn -0.401375 -0.209568 -0.891616
vn 0.115261 0.422291 -0.899103
vn 0.115261 0.422291 -0.899103
vn 0.115261 0.422291 -0.899103
vn 0.115261 0.422291 -0.899102
vn 0.873028 0.037534 -0.486223
vn 0.873028 0.037534 -0.486223
vn 0.873028 0.037534 -0.486223
vn 0.873028 0.037534 -0.486223
vn 0.177404 -0.675642 -0.715567
vn 0.144086 -0.674330 -0.724236
vn 0.144086 -0.674330 -0.724236
vn -0.237570 -0.037909 0.970630
vn -0.147066 -0.056127 0.987533
vn -0.147066 -0.056127 0.987533
vn -0.267025 -0.031814 0.963164
vn 0.666814 -0.419625 0.615852
vn 0.666814 -0.419625 0.615852
vn 0.666814 -0.419625 0.615852
vn 0.666814 -0.419625 0.615852
vn 0.792163 -0.305580 0.528297
vn 0.926437 0.089130 0.365745
vn 0.930493 0.215485 0.296226
vn 0.792163 -0.305580 0.528297
vn -0.350141 -0.014149 0.936590
vn -0.350141 -0.014149 0.936590
vn 0.926338 0.268007 0.264706
vn 0.926339 0.268007 0.264706
vn 0.440039 0.527243 0.726898
vn 0.440039 0.527243 0.726898
vn 0.440039 0.527243 0.726898
vn 0.440039 0.527243 0.726898
vn -0.262041 -0.932933 -0.246923
vn -0.262041 -0.932933 -0.246923
vn -0.262041 -0.932933 -0.246923
vn -0.262041 -0.932933 -0.246923
vn 0.683693 -0.497804 0.533624
vn 0.683693 -0.497804 0.533624
vn 0.683693 -0.497804 0.533624
vn 0.683693 -0.497804 0.533624
vn 0.068894 0.153170 0.985795
vn 0.068894 0.153170 0.985795
vn 0.068894 0.153170 0.985795
vn 0.068894 0.153170 0.985795
vn -0.901148 -0.297425 0.315389
vn -0.901148 -0.297425 0.315389
vn -0.901148 -0.297425 0.315389
vn -0.901148 -0.297425 0.315389
vn 0.052003 -0.731626 -0.679719
vn -0.355658 -0.748989 -0.559038
vn -0.070960 -0.519385 0.851589
vn -0.399474 -0.446021 0.800928
vn -0.399474 -0.446021 0.800928
vn -0.099565 -0.515443 0.851120
vn -0.796316 -0.591107 0.128347
vn -0.796316 -0.591107 0.128347
vn -0.796316 -0.591107 0.128347
vn -0.796316 -0.591107 0.128347
vn 0.247136 -0.675773 -0.694446
vn 0.711078 -0.667309 0.221510
vn 0.711078 -0.667310 0.221510
vn 0.711078 -0.667309 0.221510
vn 0.711078 -0.667309 0.221510
vn 0.196221 -0.534978 0.821764
vn 0.196221 -0.534978 0.821764
vn 0.000000 0.000000 1.000000
vn 0.000000 0.000000 1.000000
vn -0.000000 0.000000 1.000000
vn -0.000000 0.000000 1.000000
vn 0.000000 0.000000 1.000000
vn 0.000000 0.000000 1.000000
vn -0.000000 0.000000 1.000000
vn -0.000000 0.000000 1.000000
vn 0.000000 0.000000 1.000000
vn 0.000000 0.000000 1.000000
vn 0.000000 0.000000 1.000000
vn 0.000000 0.000000 1.000000
vn -0.472162 0.880757 0.036477
vn 0.027889 0.999569 -0.009158
vn -0.036637 0.999329 -0.000364
vn -0.478366 0.878161 -0.000259
vn 0.471682 0.880951 -0.037972
vn 0.474481 0.880262 -0.002506
vn -0.026312 0.997299 0.068576
vn -0.479243 0.877373 0.023321
vn 0.470612 0.876616 0.100341
vn 0.119196 -0.000000 -0.992871
vn 0.119196 -0.000000 -0.992871
vn 0.119196 0.000000 -0.992871
vn 0.119196 -0.000000 -0.992871
vn 0.119196 0.000000 -0.992871
vn 0.119196 0.000000 -0.992871
vn 0.119196 0.000000 -0.992871
vn 0.119196 0.000000 -0.992871
vn 0.119197 -0.000000 -0.992871
vn -0.479243 -0.877373 0.023321
vn -0.026312 -0.997299 0.068576
vn -0.036637 -0.999329 -0.000364
vn -0.478366 -0.878161 -0.000259
vn 0.470612 -0.876616 0.100341
vn 0.474481 -0.880262 -0.002506
vn 0.027889 -0.999569 -0.009158
vn -0.472162 -0.880757 0.036477
vn 0.471682 -0.880951 -0.037972
vn 0.857375 -0.514693 -0.000340
vn 0.847234 -0.510130 0.148194
vn 0.985045 0.000000 0.172299
vn 0.999989 0.000000 -0.004614
vn 0.850768 -0.514279 -0.108219
vn 0.993084 0.000000 -0.117405
vn 0.847234 0.510130 0.148194
vn 0.857375 0.514693 -0.000340
vn 0.850768 0.514279 -0.108219
vn -0.859411 -0.511235 0.007116
vn -0.859046 -0.511896 -0.001545
vn -0.999999 0.000000 -0.001726
vn -0.999966 0.000000 0.008279
vn -0.854524 -0.516912 0.050901
vn -0.998482 0.000000 0.055078
vn -0.859046 0.511896 -0.001545
vn -0.859411 0.511235 0.007116
vn -0.854524 0.516912 0.050901
vn -0.449553 -0.864285 0.225641
vn -0.449553 -0.864285 0.225641
vn -0.830079 -0.517152 0.208622
vn -0.830079 -0.517152 0.208622
vn 0.253331 -0.958281 0.132364
vn 0.200514 -0.973814 0.107149
vn 0.686556 -0.686281 0.240125
vn 0.652070 -0.717410 0.245210
vn -0.449553 0.864285 0.225640
vn -0.449553 0.864285 0.225640
vn -0.830079 0.517152 0.208622
vn -0.830079 0.517152 0.208622
vn 0.864209 0.495867 -0.085203
vn 0.864078 0.494693 -0.092997
vn 0.490712 0.870477 -0.038368
vn 0.492205 0.868688 -0.055810
vn -0.023230 -0.998450 -0.050575
vn -0.023230 -0.998450 -0.050575
vn -0.016434 -0.999830 0.008406
vn -0.017987 -0.999826 -0.005025
vn 0.873576 0.473158 -0.113956
vn 0.873701 0.473075 -0.113341
vn 0.509772 0.855333 -0.092394
vn 0.513188 0.854464 -0.080803
vn -0.954261 0.127447 0.270449
vn -0.954261 0.127447 0.270449
vn -0.969450 0.087788 0.229040
vn -0.969288 0.088267 0.229543
vn -0.673589 -0.640943 -0.368063
vn -0.673589 -0.640943 -0.368063
vn -0.673589 -0.640943 -0.368063
vn -0.673589 -0.640943 -0.368063
vn -0.886737 -0.205391 -0.414140
vn -0.886737 -0.205391 -0.414140
vn -0.886737 -0.205391 -0.414140
vn -0.886737 -0.205391 -0.414140
vn 0.056444 -0.998395 -0.004683
vn -0.046400 -0.992492 -0.113168
vn 0.595633 -0.762687 0.252050
vn 0.595633 -0.762687 0.252050
vn 0.505592 0.694530 0.511864
vn 0.505592 0.694530 0.511864
vn 0.505592 0.694530 0.511864
vn 0.505592 0.694530 0.511864
vn 0.884565 -0.036729 0.464969
vn 0.884565 -0.036729 0.464969
vn 0.884565 -0.036729 0.464969
vn 0.884565 -0.036729 0.464969
vn -0.129411 0.989310 -0.067222
vn -0.129411 0.989310 -0.067222
vn 0.019591 0.996206 -0.084794
vn -0.046031 0.995946 -0.077285
vn -0.570066 0.729950 -0.377091
vn -0.570066 0.729950 -0.377091
vn -0.570066 0.729950 -0.377091
vn -0.570066 0.729950 -0.377091
vn -0.787570 -0.352169 -0.505679
vn -0.787570 -0.352169 -0.505678
vn -0.787570 -0.352169 -0.505679
vn -0.787570 -0.352169 -0.505678
vn -0.836347 0.094461 -0.540001
vn -0.836347 0.094461 -0.540001
vn -0.836347 0.094461 -0.540001
vn -0.836347 0.094461 -0.540001
vn -0.200548 -0.940874 -0.273013
vn -0.200548 -0.940874 -0.273013
vn 0.316382 -0.945368 -0.078621
vn 0.316382 -0.945368 -0.078621
vn 0.316382 -0.945368 -0.078621
vn 0.316382 -0.945368 -0.078621
vn 0.607182 0.750607 0.260612
vn 0.607182 0.750607 0.260612
vn 0.607182 0.750607 0.260612
vn 0.607182 0.750607 0.260612
vn 0.737494 -0.596576 0.316544
vn 0.737494 -0.596576 0.316544
vn 0.737494 -0.596576 0.316544
vn 0.737494 -0.596576 0.316544
vn 0.207332 0.972698 -0.104267
vn 0.207332 0.972698 -0.104267
vn -0.299426 0.894701 -0.331444
vn -0.299426 0.894701 -0.331444
vn -0.299426 0.894701 -0.331444
vn -0.299426 0.894701 -0.331444
vn 0.000000 -0.988854 0.148891
vn 0.000000 -0.988854 0.148891
vn 0.894592 0.443392 0.055760
vn 0.894592 0.443392 0.055760
vn 0.546522 0.835890 0.051009
vn 0.546522 0.835890 0.051009
vn -0.990751 0.000000 0.135692
vn -0.990751 0.000000 0.135692
g Broccoli
usemtl initialShadingGroup
f 1/1/1 2/2/2 5/5/3 4/4/4
f 2/2/2 3/3/5 6/6/6 5/5/3
f 4/4/4 5/5/3 8/8/7 7/7/8
f 5/5/3 6/6/6 9/9/9 8/8/7
f 7/7/10 8/8/11 11/11/12 10/10/13
f 8/8/11 9/9/14 12/12/15 11/11/12
f 10/10/13 11/11/12 14/14/16 13/13/17
f 27/40/18 28/41/19 29/42/20 30/43/21
f 47/64/22 48/65/23 49/66/24 50/67/25
f 14/14/26 15/15/27 18/18/28 17/17/29
f 50/67/25 49/66/24 51/68/30 52/69/31
f 49/66/24 53/70/32 54/71/33 51/68/30
f 65/82/34 66/83/35 67/84/36 68/85/37
f 66/83/35 69/86/38 70/87/39 67/84/36
f 61/78/40 62/79/41 63/80/42 64/81/43
f 23/23/44 24/24/45 3/27/46 2/26/47
f 32/44/48 31/45/49 33/46/50 34/47/51
f 3/3/52 24/29/53 25/31/54 6/6/55
f 34/47/51 33/46/50 29/48/56 28/49/57
f 6/6/55 25/31/54 12/33/58 9/9/59
f 19/34/60 22/35/61 26/37/62 16/36/63
f 22/35/61 1/1/64 4/4/65 26/37/62
f 35/50/66 36/51/67 37/52/68 38/53/69
f 26/37/62 4/4/65 7/7/70 10/39/71
f 11/11/72 12/12/73 28/41/74 27/40/75
f 40/54/76 39/55/77 41/56/78 42/57/79
f 14/14/80 11/11/81 27/40/82 30/43/83
f 24/29/84 21/28/85 31/45/49 32/44/86
f 44/58/87 43/59/88 45/60/89 46/61/90
f 56/72/91 55/73/92 57/74/93 58/75/94
f 43/59/88 40/62/76 42/63/79 45/60/89
f 59/76/95 56/72/91 58/75/94 60/77/96
f 16/36/97 26/37/98 36/51/99 35/50/100
f 26/37/101 10/39/102 37/52/103 36/51/104
f 10/39/105 13/38/106 38/53/107 37/52/108
f 13/38/109 16/36/110 35/50/111 38/53/112
f 15/15/113 14/14/114 39/55/115 40/54/116
f 14/14/80 30/43/83 41/56/117 39/55/118
f 30/43/21 29/42/20 42/57/119 41/56/120
f 21/28/121 18/30/122 43/59/123 44/58/124
f 33/46/50 31/45/49 46/61/125 45/60/126
f 31/45/49 21/28/85 44/58/127 46/61/125
f 18/30/122 15/32/128 40/62/129 43/59/123
f 29/48/56 33/46/50 45/60/130 42/63/131
f 13/13/17 14/14/16 48/65/132 47/64/133
f 14/14/134 17/17/135 49/66/136 48/65/137
f 16/16/138 13/13/139 47/64/140 50/67/141
f 20/20/142 19/19/143 52/69/144 51/68/145
f 19/19/60 16/16/63 50/67/146 52/69/147
f 17/17/148 18/18/149 53/70/150 49/66/151
f 18/18/152 21/21/153 54/71/154 53/70/155
f 21/21/156 20/20/142 51/68/157 54/71/158
f 25/31/159 24/29/160 55/73/161 56/72/162
f 24/29/163 32/44/164 57/74/165 55/73/166
f 32/44/167 34/47/168 58/75/169 57/74/170
f 12/33/171 25/31/159 56/72/162 59/76/172
f 34/47/168 28/49/173 60/77/174 58/75/169
f 28/49/175 12/33/176 59/76/177 60/77/178
f 22/22/179 23/23/180 62/79/181 61/78/182
f 23/23/183 2/26/184 63/80/185 62/79/186
f 2/26/187 1/25/188 64/81/189 63/80/190
f 1/25/191 22/22/192 61/78/193 64/81/194
f 19/19/143 20/20/142 66/83/195 65/82/196
f 23/23/197 22/22/198 68/85/199 67/84/200
f 22/22/201 19/19/202 65/82/203 68/85/204
f 20/20/142 21/21/156 69/86/205 66/83/195
f 21/21/206 24/24/207 70/87/208 69/86/209
f 24/24/210 23/23/197 67/84/200 70/87/211
f 117/88/212 118/89/213 119/90/214 120/91/215
f 118/89/213 121/92/216 122/93/217 119/94/214
f 120/91/215 119/94/214 123/95/218 124/96/219
f 125/97/220 126/98/221 127/99/222 128/100/223
f 76/101/224 77/102/225 80/103/226 79/104/227
f 77/102/225 78/105/228 81/106/229 80/103/226
f 79/104/227 80/103/226 83/107/230 82/108/231
f 80/103/226 81/106/229 84/109/232 83/107/230
f 82/108/233 83/107/234 86/110/235 85/111/236
f 83/107/234 84/109/237 87/112/238 86/110/235
f 85/111/236 86/110/235 89/113/239 88/114/240
f 86/110/235 87/112/238 90/115/241 89/113/239
f 88/114/242 89/113/243 92/116/244 91/117/245
f 89/113/243 90/115/246 93/118/247 92/116/244
f 91/117/245 92/116/244 72/119/248 71/120/249
f 92/116/244 93/118/247 73/121/250 72/119/248
f 93/122/251 90/123/252 87/124/253 94/125/254
f 73/126/255 93/122/251 94/125/254 75/127/256
f 94/125/254 87/124/253 84/128/257 81/129/258
f 75/127/256 94/125/254 81/129/258 78/105/259
f 88/130/260 91/131/261 95/132/262 85/133/263
f 91/131/261 71/134/264 74/135/265 95/132/262
f 85/133/263 95/132/262 79/136/266 82/137/267
f 95/132/262 74/135/265 76/101/268 79/136/266
f 71/134/249 72/138/248 97/139/269 96/140/270
f 74/135/265 71/134/264 96/140/271 99/141/272
f 72/138/248 73/126/250 100/142/273 97/139/274
f 73/126/255 75/127/256 101/143/275 100/142/276
f 77/102/225 76/101/224 103/144/277 102/145/278
f 76/101/268 74/135/265 99/141/279 103/144/280
f 75/127/256 78/105/259 104/146/281 101/143/282
f 78/105/228 77/102/225 102/145/283 104/146/284
f 98/90/285 101/143/286 106/147/287 105/148/288
f 101/143/282 104/146/281 107/149/289 106/147/290
f 104/146/284 102/145/283 108/150/291 107/149/292
f 102/145/293 98/90/294 105/148/295 108/150/296
f 96/140/297 97/139/298 110/151/299 109/152/300
f 99/141/301 96/140/302 109/152/303 112/153/304
f 97/139/274 100/142/273 113/154/305 110/151/306
f 100/142/276 101/143/275 114/155/307 113/154/308
f 101/143/309 98/90/310 111/156/311 114/155/312
f 98/90/313 102/145/314 115/157/315 111/156/316
f 102/145/317 103/144/318 116/158/319 115/157/320
f 103/144/321 99/141/322 112/153/323 116/158/324
f 109/152/325 110/151/326 118/89/327 117/88/328
f 112/153/329 109/152/330 117/88/331 120/91/332
f 110/151/306 113/154/305 121/92/333 118/89/334
f 113/154/335 114/155/336 122/93/337 121/92/338
f 114/155/339 111/156/340 119/94/341 122/93/342
f 111/156/343 115/157/344 123/95/345 119/94/346
f 115/157/320 116/158/319 124/96/347 123/95/348
f 116/158/349 112/153/350 120/91/351 124/96/352
f 105/148/288 106/147/287 126/98/353 125/97/354
f 106/147/290 107/149/289 127/99/355 126/98/356
f 107/149/292 108/150/291 128/100/357 127/99/358
f 108/150/296 105/148/295 125/97/359 128/100/360
