# This file uses centimeters as units for non-parametric coordinates.

mtllib chive2c.mtl
g default
v 11.229699 0.925254 -11.776747
v 11.206434 0.970913 -11.776747
v 11.170198 1.007149 -11.776747
v 11.124539 1.030414 -11.776747
v 11.073925 1.038430 -11.776747
v 11.023310 1.030414 -11.776747
v 10.977651 1.007149 -11.776747
v 10.941415 0.970913 -11.776747
v 10.918150 0.925254 -11.776747
v 10.910134 0.874640 -11.776747
v 10.918150 0.824026 -11.776747
v 10.941415 0.778366 -11.776747
v 10.977651 0.742130 -11.776747
v 11.023310 0.718865 -11.776747
v 11.073925 0.710849 -11.776747
v 11.124539 0.718865 -11.776747
v 11.170198 0.742130 -11.776747
v 11.206434 0.778366 -11.776747
v 11.229699 0.824026 -11.776747
v 11.237715 0.874640 -11.776747
v 11.207275 0.917968 -9.531680
v 11.187359 0.957055 -9.531680
v 11.156340 0.988074 -9.531680
v 11.117253 1.007990 -9.531680
v 11.073925 1.014853 -9.531680
v 11.030596 1.007990 -9.531680
v 10.991509 0.988074 -9.531680
v 10.960490 0.957055 -9.531680
v 10.940574 0.917968 -9.531680
v 10.933712 0.874640 -9.531680
v 10.940574 0.831312 -9.531680
v 10.960490 0.792225 -9.531680
v 10.991509 0.761205 -9.531680
v 11.030596 0.741289 -9.531680
v 11.073925 0.734427 -9.531680
v 11.117253 0.741289 -9.531680
v 11.156340 0.761205 -9.531680
v 11.187359 0.792225 -9.531680
v 11.207275 0.831312 -9.531680
v 11.214137 0.874640 -9.531680
vt 0.375000 0.387688
vt 0.387500 0.387688
vt 0.400000 0.387688
vt 0.412500 0.387688
vt 0.425000 0.387688
vt 0.437500 0.387688
vt 0.450000 0.387688
vt 0.462500 0.387688
vt 0.475000 0.387688
vt 0.487500 0.387688
vt 0.500000 0.387688
vt 0.512500 0.387688
vt 0.525000 0.387688
vt 0.537500 0.387688
vt 0.550000 0.387688
vt 0.562500 0.387688
vt 0.575000 0.387688
vt 0.587500 0.387688
vt 0.600000 0.387688
vt 0.612500 0.387688
vt 0.625000 0.387688
vt 0.375000 0.462876
vt 0.387500 0.462876
vt 0.400000 0.462876
vt 0.412500 0.462876
vt 0.425000 0.462876
vt 0.437500 0.462876
vt 0.450000 0.462876
vt 0.462500 0.462876
vt 0.475000 0.462876
vt 0.487500 0.462876
vt 0.500000 0.462876
vt 0.512500 0.462876
vt 0.525000 0.462876
vt 0.537500 0.462876
vt 0.550000 0.462876
vt 0.562500 0.462876
vt 0.575000 0.462876
vt 0.587500 0.462876
vt 0.600000 0.462876
vt 0.612500 0.462876
vt 0.625000 0.462876
vn 0.951004 0.308999 0.010501
vn 0.808972 0.587753 0.010501
vn 0.808972 0.587753 0.010501
vn 0.951004 0.308999 0.010501
vn 0.587753 0.808972 0.010501
vn 0.587753 0.808973 0.010501
vn 0.309000 0.951004 0.010501
vn 0.309000 0.951004 0.010501
vn -0.000000 0.999945 0.010501
vn -0.000000 0.999945 0.010501
vn -0.309000 0.951004 0.010501
vn -0.309000 0.951004 0.010501
vn -0.587753 0.808972 0.010501
vn -0.587753 0.808972 0.010501
vn -0.808973 0.587753 0.010501
vn -0.808973 0.587753 0.010501
vn -0.951004 0.309000 0.010501
vn -0.951004 0.309000 0.010501
vn -0.999945 0.000000 0.010501
vn -0.999945 0.000000 0.010501
vn -0.951004 -0.309000 0.010501
vn -0.951004 -0.309000 0.010501
vn -0.808972 -0.587753 0.010501
vn -0.808972 -0.587753 0.010501
vn -0.587753 -0.808973 0.010501
vn -0.587753 -0.808972 0.010501
vn -0.309000 -0.951004 0.010501
vn -0.309000 -0.951004 0.010501
vn 0.000000 -0.999945 0.010501
vn 0.000000 -0.999945 0.010501
vn 0.309000 -0.951004 0.010501
vn 0.309000 -0.951004 0.010501
vn 0.587753 -0.808972 0.010501
vn 0.587753 -0.808972 0.010501
vn 0.808972 -0.587753 0.010501
vn 0.808972 -0.587753 0.010501
vn 0.951004 -0.309000 0.010501
vn 0.951004 -0.309000 0.010501
vn 0.999945 -0.000001 0.010501
vn 0.999945 -0.000001 0.010501
g Chive2c
usemtl initialShadingGroup
f 1/1/1 2/2/2 22/23/3 21/22/4
f 2/2/2 3/3/5 23/24/6 22/23/3
f 3/3/5 4/4/7 24/25/8 23/24/6
f 4/4/7 5/5/9 25/26/10 24/25/8
f 5/5/9 6/6/11 26/27/12 25/26/10
f 6/6/11 7/7/13 27/28/14 26/27/12
f 7/7/13 8/8/15 28/29/16 27/28/14
f 8/8/15 9/9/17 29/30/18 28/29/16
f 9/9/17 10/10/19 30/31/20 29/30/18
f 10/10/19 11/11/21 31/32/22 30/31/20
f 11/11/21 12/12/23 32/33/24 31/32/22
f 12/12/23 13/13/25 33/34/26 32/33/24
f 13/13/25 14/14/27 34/35/28 33/34/26
f 14/14/27 15/15/29 35/36/30 34/35/28
f 15/15/29 16/16/31 36/37/32 35/36/30
f 16/16/31 17/17/33 37/38/34 36/37/32
f 17/17/33 18/18/35 38/39/36 37/38/34
f 18/18/35 19/19/37 39/40/38 38/39/36
f 19/19/37 20/20/39 40/41/40 39/40/38
f 20/20/39 1/21/1 21/42/4 40/41/40
