# This file uses centimeters as units for non-parametric coordinates.

mtllib chive2a.mtl
g default
v 11.188576 0.908558 -7.011173
v 11.172985 0.939157 -7.011173
v 11.148702 0.963440 -7.011173
v 11.118104 0.979030 -7.011173
v 11.084185 0.984402 -7.011173
v 11.050267 0.979030 -7.011173
v 11.019669 0.963440 -7.011173
v 10.995386 0.939157 -7.011173
v 10.979795 0.908558 -7.011173
v 10.974423 0.874640 -7.011173
v 10.979795 0.840721 -7.011173
v 10.995386 0.810123 -7.011173
v 11.019669 0.785840 -7.011173
v 11.050267 0.770249 -7.011173
v 11.084185 0.764877 -7.011173
v 11.118104 0.770249 -7.011173
v 11.148702 0.785840 -7.011173
v 11.172985 0.810123 -7.011173
v 11.188576 0.840721 -7.011173
v 11.193948 0.874640 -7.011173
v 11.108717 0.882611 -3.241135
v 11.105053 0.889801 -3.241135
v 11.099347 0.895508 -3.241135
v 11.092156 0.899171 -3.241135
v 11.084185 0.900434 -3.241135
v 11.076215 0.899171 -3.241135
v 11.069024 0.895508 -3.241135
v 11.063318 0.889801 -3.241135
v 11.059654 0.882611 -3.241135
v 11.058391 0.874640 -3.241135
v 11.059654 0.866669 -3.241135
v 11.063318 0.859478 -3.241135
v 11.069024 0.853772 -3.241135
v 11.076215 0.850108 -3.241135
v 11.084185 0.848846 -3.241135
v 11.092156 0.850108 -3.241135
v 11.099347 0.853772 -3.241135
v 11.105053 0.859478 -3.241135
v 11.108717 0.866669 -3.241135
v 11.109980 0.874640 -3.241135
v 11.090982 0.876848 -2.722414
v 11.089967 0.878840 -2.722414
v 11.088386 0.880421 -2.722414
v 11.086394 0.881436 -2.722414
v 11.084185 0.881786 -2.722414
v 11.081977 0.881436 -2.722414
v 11.079985 0.880421 -2.722414
v 11.078404 0.878840 -2.722414
v 11.077389 0.876848 -2.722414
v 11.077039 0.874640 -2.722414
v 11.077389 0.872431 -2.722414
v 11.078404 0.870439 -2.722414
v 11.079985 0.868858 -2.722414
v 11.081977 0.867843 -2.722414
v 11.084185 0.867493 -2.722414
v 11.086394 0.867843 -2.722414
v 11.088386 0.868858 -2.722414
v 11.089967 0.870439 -2.722414
v 11.090982 0.872431 -2.722414
v 11.091332 0.874640 -2.722414
v 11.084185 0.874640 -2.722244
vt 0.375000 0.538064
vt 0.387500 0.538064
vt 0.400000 0.538064
vt 0.412500 0.538064
vt 0.425000 0.538064
vt 0.437500 0.538064
vt 0.450000 0.538064
vt 0.462500 0.538064
vt 0.475000 0.538064
vt 0.487500 0.538064
vt 0.500000 0.538064
vt 0.512500 0.538064
vt 0.525000 0.538064
vt 0.537500 0.538064
vt 0.550000 0.538064
vt 0.562500 0.538064
vt 0.575000 0.538064
vt 0.587500 0.538064
vt 0.600000 0.538064
vt 0.612500 0.538064
vt 0.625000 0.538064
vt 0.375000 0.613252
vt 0.387500 0.613252
vt 0.400000 0.613252
vt 0.412500 0.613252
vt 0.425000 0.613252
vt 0.437500 0.613252
vt 0.450000 0.613252
vt 0.462500 0.613252
vt 0.475000 0.613252
vt 0.487500 0.613252
vt 0.500000 0.613252
vt 0.512500 0.613252
vt 0.525000 0.613252
vt 0.537500 0.613252
vt 0.550000 0.613252
vt 0.562500 0.613252
vt 0.575000 0.613252
vt 0.587500 0.613252
vt 0.600000 0.613252
vt 0.612500 0.613252
vt 0.625000 0.613252
vt 0.375000 0.688440
vt 0.387500 0.688440
vt 0.400000 0.688440
vt 0.412500 0.688440
vt 0.425000 0.688440
vt 0.437500 0.688440
vt 0.450000 0.688440
vt 0.462500 0.688440
vt 0.475000 0.688440
vt 0.487500 0.688440
vt 0.500000 0.688440
vt 0.512500 0.688440
vt 0.525000 0.688440
vt 0.537500 0.688440
vt 0.550000 0.688440
vt 0.562500 0.688440
vt 0.575000 0.688440
vt 0.587500 0.688440
vt 0.600000 0.688440
vt 0.612500 0.688440
vt 0.625000 0.688440
vt 0.648603 0.795466
vt 0.626409 0.751908
vt 0.591842 0.717341
vt 0.548284 0.695147
vt 0.500000 0.687500
vt 0.451716 0.695147
vt 0.408159 0.717341
vt 0.373591 0.751909
vt 0.351397 0.795466
vt 0.343750 0.843750
vt 0.351397 0.892034
vt 0.373591 0.935591
vt 0.408159 0.970159
vt 0.451716 0.992353
vt 0.500000 1.000000
vt 0.548284 0.992353
vt 0.591841 0.970159
vt 0.626409 0.935591
vt 0.648603 0.892034
vt 0.656250 0.843750
vt 0.500000 0.837500
vn 0.950821 0.308939 0.022267
vn 0.808816 0.587640 0.022267
vn 0.808808 0.587634 0.022696
vn 0.950812 0.308936 0.022696
vn 0.587639 0.808817 0.022267
vn 0.587634 0.808809 0.022696
vn 0.308940 0.950821 0.022267
vn 0.308937 0.950812 0.022696
vn -0.000000 0.999752 0.022267
vn -0.000000 0.999742 0.022696
vn -0.308940 0.950821 0.022267
vn -0.308937 0.950812 0.022696
vn -0.587640 0.808816 0.022267
vn -0.587634 0.808809 0.022696
vn -0.808817 0.587639 0.022267
vn -0.808809 0.587633 0.022696
vn -0.950821 0.308940 0.022267
vn -0.950812 0.308937 0.022696
vn -0.999752 0.000000 0.022267
vn -0.999742 0.000000 0.022696
vn -0.950821 -0.308941 0.022267
vn -0.950811 -0.308938 0.022696
vn -0.808816 -0.587640 0.022267
vn -0.808809 -0.587634 0.022696
vn -0.587639 -0.808816 0.022267
vn -0.587634 -0.808809 0.022696
vn -0.308941 -0.950821 0.022267
vn -0.308938 -0.950812 0.022696
vn 0.000000 -0.999752 0.022267
vn 0.000000 -0.999742 0.022696
vn 0.308941 -0.950821 0.022267
vn 0.308937 -0.950812 0.022696
vn 0.587639 -0.808816 0.022267
vn 0.587634 -0.808809 0.022696
vn 0.808817 -0.587639 0.022267
vn 0.808809 -0.587634 0.022696
vn 0.950821 -0.308940 0.022267
vn 0.950812 -0.308937 0.022696
vn 0.999752 -0.000001 0.022267
vn 0.999742 -0.000001 0.022696
vn 0.808493 0.587408 0.035927
vn 0.950444 0.308813 0.035927
vn 0.587406 0.808495 0.035927
vn 0.308817 0.950443 0.035927
vn 0.000000 0.999354 0.035927
vn -0.308816 0.950443 0.035927
vn -0.587406 0.808494 0.035927
vn -0.808495 0.587406 0.035927
vn -0.950443 0.308816 0.035927
vn -0.999354 -0.000000 0.035927
vn -0.950443 -0.308816 0.035927
vn -0.808494 -0.587407 0.035927
vn -0.587406 -0.808495 0.035927
vn -0.308817 -0.950443 0.035927
vn -0.000000 -0.999354 0.035927
vn 0.308816 -0.950443 0.035927
vn 0.587406 -0.808495 0.035927
vn 0.808495 -0.587406 0.035927
vn 0.950443 -0.308816 0.035927
vn 0.999354 -0.000006 0.035927
vn 0.022650 0.007522 0.999715
vn 0.019267 0.014261 0.999713
vn -0.000000 0.000015 1.000000
vn 0.013999 0.019276 0.999716
vn 0.007359 0.022567 0.999718
vn -0.000000 0.023814 0.999716
vn -0.007359 0.022639 0.999717
vn -0.013999 0.019198 0.999718
vn -0.019268 0.013948 0.999717
vn -0.022650 0.007366 0.999716
vn -0.023816 0.000000 0.999716
vn -0.022650 -0.007366 0.999716
vn -0.019268 -0.013948 0.999717
vn -0.013999 -0.019120 0.999719
vn -0.007359 -0.022489 0.999720
vn -0.000000 -0.023746 0.999718
vn 0.007359 -0.022571 0.999718
vn 0.013999 -0.019276 0.999716
vn 0.019268 -0.014105 0.999715
vn 0.022650 -0.007523 0.999715
vn 0.023816 -0.000157 0.999716
g Chive2a
usemtl initialShadingGroup
f 1/1/1 2/2/2 22/23/3 21/22/4
f 2/2/2 3/3/5 23/24/6 22/23/3
f 3/3/5 4/4/7 24/25/8 23/24/6
f 4/4/7 5/5/9 25/26/10 24/25/8
f 5/5/9 6/6/11 26/27/12 25/26/10
f 6/6/11 7/7/13 27/28/14 26/27/12
f 7/7/13 8/8/15 28/29/16 27/28/14
f 8/8/15 9/9/17 29/30/18 28/29/16
f 9/9/17 10/10/19 30/31/20 29/30/18
f 10/10/19 11/11/21 31/32/22 30/31/20
f 11/11/21 12/12/23 32/33/24 31/32/22
f 12/12/23 13/13/25 33/34/26 32/33/24
f 13/13/25 14/14/27 34/35/28 33/34/26
f 14/14/27 15/15/29 35/36/30 34/35/28
f 15/15/29 16/16/31 36/37/32 35/36/30
f 16/16/31 17/17/33 37/38/34 36/37/32
f 17/17/33 18/18/35 38/39/36 37/38/34
f 18/18/35 19/19/37 39/40/38 38/39/36
f 19/19/37 20/20/39 40/41/40 39/40/38
f 20/20/39 1/21/1 21/42/4 40/41/40
f 21/22/4 22/23/3 42/44/41 41/43/42
f 22/23/3 23/24/6 43/45/43 42/44/41
f 23/24/6 24/25/8 44/46/44 43/45/43
f 24/25/8 25/26/10 45/47/45 44/46/44
f 25/26/10 26/27/12 46/48/46 45/47/45
f 26/27/12 27/28/14 47/49/47 46/48/46
f 27/28/14 28/29/16 48/50/48 47/49/47
f 28/29/16 29/30/18 49/51/49 48/50/48
f 29/30/18 30/31/20 50/52/50 49/51/49
f 30/31/20 31/32/22 51/53/51 50/52/50
f 31/32/22 32/33/24 52/54/52 51/53/51
f 32/33/24 33/34/26 53/55/53 52/54/52
f 33/34/26 34/35/28 54/56/54 53/55/53
f 34/35/28 35/36/30 55/57/55 54/56/54
f 35/36/30 36/37/32 56/58/56 55/57/55
f 36/37/32 37/38/34 57/59/57 56/58/56
f 37/38/34 38/39/36 58/60/58 57/59/57
f 38/39/36 39/40/38 59/61/59 58/60/58
f 39/40/38 40/41/40 60/62/60 59/61/59
f 40/41/40 21/42/4 41/63/42 60/62/60
f 41/82/61 42/81/62 61/84/63
f 42/81/62 43/80/64 61/84/63
f 43/80/64 44/79/65 61/84/63
f 44/79/65 45/78/66 61/84/63
f 45/78/66 46/77/67 61/84/63
f 46/77/67 47/76/68 61/84/63
f 47/76/68 48/75/69 61/84/63
f 48/75/69 49/74/70 61/84/63
f 49/74/70 50/73/71 61/84/63
f 50/73/71 51/72/72 61/84/63
f 51/72/72 52/71/73 61/84/63
f 52/71/73 53/70/74 61/84/63
f 53/70/74 54/69/75 61/84/63
f 54/69/75 55/68/76 61/84/63
f 55/68/76 56/67/77 61/84/63
f 56/67/77 57/66/78 61/84/63
f 57/66/78 58/65/79 61/84/63
f 58/65/79 59/64/80 61/84/63
f 59/64/80 60/83/81 61/84/63
f 60/83/81 41/82/61 61/84/63
