# This file uses centimeters as units for non-parametric coordinates.

mtllib mushroom.mtl
g default
v -86.866737 5.699469 -11.845066
v -90.000626 4.231818 -11.899905
v -94.359215 4.231818 -11.867620
v -97.491943 5.699469 -11.766361
v -85.644081 8.549993 -11.946642
v -98.715973 8.549993 -11.849813
v -85.644081 12.866241 -11.946642
v -98.715973 12.866241 -11.849813
v -86.866737 15.716764 -11.845066
v -90.000626 17.184418 -11.899905
v -94.359215 17.184418 -11.867620
v -97.491943 15.716764 -11.766361
v -85.803085 16.715996 -11.341853
v -89.557411 18.488670 -11.319966
v -94.793785 18.488670 -11.281178
v -98.548027 16.715996 -11.247446
v -85.787521 16.715996 -9.241238
v -89.541832 18.488670 -9.216343
v -94.778206 18.488670 -9.177555
v -98.532471 16.715996 -9.146831
v -86.857155 15.694235 -7.325080
v -89.973061 17.165428 -7.315850
v -94.318871 17.165428 -7.283659
v -97.434570 15.694235 -7.246728
v -85.627258 12.860554 -7.350442
v -89.515327 13.301634 -5.638611
v -94.751701 13.301634 -5.599823
v -98.664703 12.860554 -7.253868
v -85.627258 8.555679 -7.350442
v -89.515327 8.114599 -5.638611
v -94.751701 8.114599 -5.599823
v -98.664703 8.555679 -7.253868
v -86.857155 5.721998 -7.325080
v -89.973061 4.250805 -7.315850
v -94.318871 4.250805 -7.283659
v -97.434570 5.721998 -7.246728
v -85.787521 4.700236 -9.241237
v -89.541832 2.927564 -9.216342
v -94.778206 2.927564 -9.177554
v -98.532471 4.700236 -9.146830
v -85.803085 4.700236 -11.341853
v -89.557411 2.927564 -11.319966
v -94.793785 2.927564 -11.281178
v -98.548027 4.700236 -11.247446
v -100.014595 8.114599 -9.143627
v -100.030212 8.114599 -11.252527
v -100.014595 13.301634 -9.143627
v -100.030212 13.301634 -11.252527
v -84.305504 8.114599 -9.259992
v -84.321129 8.114599 -11.368891
v -84.305504 13.301634 -9.259992
v -84.321129 13.301634 -11.368891
v -87.307640 6.120769 -11.035268
v -90.177048 4.773145 -11.125643
v -89.738281 8.301811 -10.221354
v -86.182869 8.729794 -11.167511
v -94.171341 4.773145 -11.096056
v -94.596664 8.301811 -10.185367
v -97.039093 6.120769 -10.963183
v -98.165695 8.729794 -11.078749
v -89.738281 13.114422 -10.221354
v -86.182869 12.686441 -11.167511
v -94.596664 13.114422 -10.185367
v -98.165695 12.686441 -11.078749
v -90.177048 16.643089 -11.125643
v -87.307640 15.295464 -11.035268
v -94.171341 16.643089 -11.096056
v -97.039093 15.295464 -10.963183
v -89.416504 7.941450 -15.896870
v -95.002487 7.941450 -15.855492
v -95.002487 13.474784 -15.855492
v -89.416504 13.474784 -15.896870
v -90.162392 8.661961 -18.392078
v -94.293640 8.661961 -18.361477
v -94.293640 12.754273 -18.361477
v -90.162392 12.754273 -18.392078
vt 0.375000 0.000000
vt 0.458333 0.000000
vt 0.541667 0.000000
vt 0.625000 0.000000
vt 0.375000 0.083333
vt 0.458333 0.083333
vt 0.541667 0.083333
vt 0.625000 0.083333
vt 0.375000 0.166667
vt 0.458333 0.166667
vt 0.541667 0.166667
vt 0.625000 0.166667
vt 0.375000 0.250000
vt 0.458333 0.250000
vt 0.541667 0.250000
vt 0.625000 0.250000
vt 0.375000 0.333333
vt 0.458333 0.333333
vt 0.541667 0.333333
vt 0.625000 0.333333
vt 0.375000 0.416667
vt 0.458333 0.416667
vt 0.541667 0.416667
vt 0.625000 0.416667
vt 0.375000 0.500000
vt 0.458333 0.500000
vt 0.541667 0.500000
vt 0.625000 0.500000
vt 0.375000 0.583333
vt 0.458333 0.583333
vt 0.541667 0.583333
vt 0.625000 0.583333
vt 0.375000 0.666667
vt 0.458333 0.666667
vt 0.541667 0.666667
vt 0.625000 0.666667
vt 0.375000 0.750000
vt 0.458333 0.750000
vt 0.541667 0.750000
vt 0.625000 0.750000
vt 0.375000 0.833333
vt 0.458333 0.833333
vt 0.541667 0.833333
vt 0.625000 0.833333
vt 0.375000 0.916667
vt 0.458333 0.916667
vt 0.541667 0.916667
vt 0.625000 0.916667
vt 0.375000 1.000000
vt 0.458333 1.000000
vt 0.541667 1.000000
vt 0.625000 1.000000
vt 0.875000 0.000000
vt 0.791667 0.000000
vt 0.708333 0.000000
vt 0.875000 0.083333
vt 0.791667 0.083333
vt 0.708333 0.083333
vt 0.875000 0.166667
vt 0.791667 0.166667
vt 0.708333 0.166667
vt 0.875000 0.250000
vt 0.791667 0.250000
vt 0.708333 0.250000
vt 0.125000 0.000000
vt 0.208333 0.000000
vt 0.291667 0.000000
vt 0.125000 0.083333
vt 0.208333 0.083333
vt 0.291667 0.083333
vt 0.125000 0.166667
vt 0.208333 0.166667
vt 0.291667 0.166667
vt 0.125000 0.250000
vt 0.208333 0.250000
vt 0.291667 0.250000
vt 0.375000 0.000000
vt 0.458333 0.000000
vt 0.375000 0.083333
vt 0.541667 0.000000
vt 0.625000 0.000000
vt 0.625000 0.083333
vt 0.375000 0.166667
vt 0.625000 0.166667
vt 0.458333 0.250000
vt 0.375000 0.250000
vt 0.541667 0.250000
vt 0.625000 0.250000
vt 0.458333 0.083333
vt 0.541667 0.083333
vt 0.541667 0.166667
vt 0.458333 0.166667
vt 0.458333 0.083333
vt 0.541667 0.083333
vt 0.541667 0.166667
vt 0.458333 0.166667
vn -0.175316 0.166712 -0.970295
vn -0.051261 0.228340 -0.972231
vn -0.145158 0.137013 -0.979876
vn -0.236099 0.044689 -0.970701
vn 0.036852 0.228340 -0.972884
vn 0.130626 0.137013 -0.981919
vn 0.160923 0.166711 -0.972785
vn 0.221694 0.044688 -0.974092
vn -0.145158 -0.137013 -0.979876
vn -0.236099 -0.044689 -0.970701
vn -0.007407 0.000000 -0.999973
vn -0.007407 0.000000 -0.999973
vn -0.007407 0.000000 -0.999973
vn -0.007407 0.000000 -0.999973
vn 0.221694 -0.044689 -0.974092
vn 0.130626 -0.137013 -0.981919
vn -0.051261 -0.228340 -0.972231
vn -0.175316 -0.166712 -0.970294
vn 0.036852 -0.228340 -0.972884
vn 0.160923 -0.166712 -0.972785
vn 0.160624 0.331999 -0.929503
vn 0.063909 0.377725 -0.923710
vn 0.178250 0.902699 -0.391613
vn 0.398716 0.841273 -0.365084
vn -0.077586 0.377725 -0.922661
vn -0.184032 0.902699 -0.388930
vn -0.174376 0.332000 -0.927022
vn -0.404080 0.841273 -0.359137
vn 0.190353 0.935436 0.297868
vn 0.410239 0.865833 0.286423
vn -0.185920 0.935436 0.300656
vn -0.405950 0.865833 0.292469
vn 0.154426 0.794464 0.587350
vn 0.348252 0.731397 0.586327
vn -0.145708 0.794464 0.589573
vn -0.339528 0.731397 0.591421
vn 0.304025 0.299650 0.904311
vn 0.089441 0.375267 0.922592
vn 0.156417 0.150251 0.976196
vn 0.378993 0.085053 0.921483
vn -0.075764 0.375266 0.923816
vn -0.141938 0.150251 0.978406
vn -0.290595 0.299649 0.908716
vn -0.365300 0.085053 0.926996
vn 0.156417 -0.150251 0.976196
vn 0.378993 -0.085053 0.921483
vn -0.141938 -0.150251 0.978406
vn -0.365300 -0.085053 0.926996
vn 0.089441 -0.375267 0.922592
vn 0.304025 -0.299650 0.904311
vn -0.075764 -0.375266 0.923816
vn -0.290595 -0.299650 0.908716
vn 0.348251 -0.731397 0.586327
vn 0.154426 -0.794464 0.587350
vn 0.190353 -0.935436 0.297868
vn 0.410238 -0.865833 0.286424
vn -0.145708 -0.794464 0.589573
vn -0.185919 -0.935436 0.300655
vn -0.339527 -0.731397 0.591422
vn -0.405950 -0.865833 0.292469
vn 0.178250 -0.902699 -0.391614
vn 0.398715 -0.841273 -0.365084
vn -0.184031 -0.902699 -0.388931
vn -0.404080 -0.841273 -0.359137
vn 0.063909 -0.377724 -0.923710
vn 0.160624 -0.331998 -0.929504
vn -0.077586 -0.377724 -0.922662
vn -0.174376 -0.332000 -0.927022
vn -0.874966 -0.379629 0.300525
vn -0.735344 -0.318833 0.598009
vn -0.792463 -0.130390 0.595819
vn -0.937045 -0.165314 0.307599
vn -0.852680 -0.375067 -0.363679
vn -0.908249 -0.159739 -0.386740
vn -0.339714 -0.159842 -0.926847
vn -0.386091 -0.063068 -0.920302
vn -0.792463 0.130391 0.595819
vn -0.937045 0.165314 0.307599
vn -0.908249 0.159739 -0.386740
vn -0.386091 0.063068 -0.920302
vn -0.735344 0.318833 0.598009
vn -0.874966 0.379630 0.300525
vn -0.852679 0.375067 -0.363679
vn -0.339714 0.159842 -0.926847
vn 0.744121 -0.318834 0.587052
vn 0.879321 -0.379632 0.287532
vn 0.941499 -0.165315 0.293685
vn 0.801202 -0.130391 0.584016
vn 0.847197 -0.375070 -0.376271
vn 0.902419 -0.159741 -0.400154
vn 0.325946 -0.159844 -0.931777
vn 0.372413 -0.063068 -0.925922
vn 0.941499 0.165315 0.293685
vn 0.801202 0.130391 0.584016
vn 0.902419 0.159741 -0.400154
vn 0.372413 0.063068 -0.925921
vn 0.879321 0.379632 0.287532
vn 0.744121 0.318834 0.587052
vn 0.847196 0.375071 -0.376271
vn 0.325946 0.159844 -0.931777
vn -0.333965 0.742126 -0.581134
vn -0.161185 0.794429 -0.585578
vn -0.150511 0.796774 -0.585233
vn -0.333965 0.742126 -0.581134
vn -0.802707 0.135496 -0.580778
vn -0.756858 0.300569 -0.580365
vn -0.756859 0.300569 -0.580365
vn -0.804741 0.125302 -0.580252
vn 0.152493 0.794428 -0.587903
vn 0.141825 0.796773 -0.587399
vn 0.325320 0.742124 -0.586020
vn 0.325320 0.742124 -0.586020
vn 0.748176 0.300570 -0.591515
vn 0.794012 0.135497 -0.592609
vn 0.796054 0.125302 -0.592113
vn 0.748176 0.300570 -0.591515
vn -0.802707 -0.135496 -0.580777
vn -0.804741 -0.125302 -0.580251
vn 0.794012 -0.135497 -0.592609
vn 0.796054 -0.125302 -0.592113
vn -0.161185 -0.794428 -0.585580
vn -0.333965 -0.742125 -0.581135
vn -0.333965 -0.742125 -0.581135
vn -0.150511 -0.796773 -0.585234
vn -0.756859 -0.300569 -0.580365
vn -0.756859 -0.300569 -0.580365
vn 0.152493 -0.794427 -0.587904
vn 0.141825 -0.796772 -0.587401
vn 0.748176 -0.300571 -0.591515
vn 0.748176 -0.300571 -0.591515
vn 0.325320 -0.742123 -0.586021
vn 0.325320 -0.742123 -0.586021
vn 0.000470 -0.997989 0.063393
vn 0.000470 -0.997989 0.063393
vn -0.000209 -0.999600 -0.028275
vn -0.000209 -0.999600 -0.028275
vn -0.997449 0.000000 0.071390
vn -0.997449 0.000000 0.071390
vn -0.999774 0.000000 -0.021251
vn -0.999774 0.000000 -0.021251
vn 0.000470 0.997989 0.063393
vn 0.000470 0.997989 0.063393
vn -0.000209 0.999600 -0.028275
vn -0.000209 0.999600 -0.028275
vn 0.998397 0.000000 0.056605
vn 0.998397 0.000000 0.056605
vn 0.999350 0.000000 -0.036059
vn 0.999350 0.000000 -0.036059
vn -0.002051 -0.960909 -0.276857
vn -0.002051 -0.960909 -0.276857
vn -0.962246 0.000000 -0.272182
vn -0.962246 0.000000 -0.272182
vn -0.002051 0.960909 -0.276857
vn -0.002051 0.960909 -0.276857
vn 0.958109 0.000000 -0.286405
vn 0.958109 0.000000 -0.286405
g pCube5
usemtl initialShadingGroup
f 53/77/1 54/78/2 55/6/3 56/79/4
f 54/78/2 57/80/5 58/7/6 55/6/3
f 57/80/5 59/81/7 60/82/8 58/7/6
f 56/79/4 55/6/3 61/10/9 62/83/10
f 73/93/11 74/94/12 75/95/13 76/96/14
f 58/7/6 60/82/8 64/84/15 63/11/16
f 62/83/10 61/10/9 65/85/17 66/86/18
f 61/10/9 63/11/16 67/87/19 65/85/17
f 63/11/16 64/84/15 68/88/20 67/87/19
f 9/13/21 10/14/22 14/18/23 13/17/24
f 10/14/22 11/15/25 15/19/26 14/18/23
f 11/15/25 12/16/27 16/20/28 15/19/26
f 13/17/24 14/18/23 18/22/29 17/21/30
f 14/18/23 15/19/26 19/23/31 18/22/29
f 15/19/26 16/20/28 20/24/32 19/23/31
f 17/21/30 18/22/29 22/26/33 21/25/34
f 18/22/29 19/23/31 23/27/35 22/26/33
f 19/23/31 20/24/32 24/28/36 23/27/35
f 21/25/37 22/26/38 26/30/39 25/29/40
f 22/26/38 23/27/41 27/31/42 26/30/39
f 23/27/41 24/28/43 28/32/44 27/31/42
f 25/29/40 26/30/39 30/34/45 29/33/46
f 26/30/39 27/31/42 31/35/47 30/34/45
f 27/31/42 28/32/44 32/36/48 31/35/47
f 29/33/46 30/34/45 34/38/49 33/37/50
f 30/34/45 31/35/47 35/39/51 34/38/49
f 31/35/47 32/36/48 36/40/52 35/39/51
f 33/37/53 34/38/54 38/42/55 37/41/56
f 34/38/54 35/39/57 39/43/58 38/42/55
f 35/39/57 36/40/59 40/44/60 39/43/58
f 37/41/56 38/42/55 42/46/61 41/45/62
f 38/42/55 39/43/58 43/47/63 42/46/61
f 39/43/58 40/44/60 44/48/64 43/47/63
f 41/45/62 42/46/61 2/50/65 1/49/66
f 42/46/61 43/47/63 3/51/67 2/50/65
f 43/47/63 44/48/64 4/52/68 3/51/67
f 40/54/69 36/53/70 32/56/71 45/57/72
f 44/55/73 40/54/69 45/57/72 46/58/74
f 4/4/75 44/55/73 46/58/74 6/8/76
f 45/57/72 32/56/71 28/59/77 47/60/78
f 46/58/74 45/57/72 47/60/78 48/61/79
f 6/8/76 46/58/74 48/61/79 8/12/80
f 47/60/78 28/59/77 24/62/81 20/63/82
f 48/61/79 47/60/78 20/63/82 16/64/83
f 8/12/80 48/61/79 16/64/83 12/16/84
f 33/65/85 37/66/86 49/69/87 29/68/88
f 37/66/86 41/67/89 50/70/90 49/69/87
f 41/67/89 1/1/91 5/5/92 50/70/90
f 29/68/88 49/69/87 51/72/93 25/71/94
f 49/69/87 50/70/90 52/73/95 51/72/93
f 50/70/90 5/5/92 7/9/96 52/73/95
f 25/71/94 51/72/93 17/75/97 21/74/98
f 51/72/93 52/73/95 13/76/99 17/75/97
f 52/73/95 7/9/96 9/13/100 13/76/99
f 1/1/101 2/2/102 54/78/103 53/77/104
f 5/5/105 1/1/106 53/77/107 56/79/108
f 2/2/102 3/3/109 57/80/110 54/78/103
f 3/3/109 4/4/111 59/81/112 57/80/110
f 4/4/113 6/8/114 60/82/115 59/81/116
f 7/9/117 5/5/105 56/79/108 62/83/118
f 6/8/114 8/12/119 64/84/120 60/82/115
f 10/14/121 9/13/122 66/86/123 65/85/124
f 9/13/125 7/9/117 62/83/118 66/86/126
f 11/15/127 10/14/121 65/85/124 67/87/128
f 8/12/119 12/16/129 68/88/130 64/84/120
f 12/16/131 11/15/127 67/87/128 68/88/132
f 55/6/133 58/7/134 70/90/135 69/89/136
f 58/7/137 63/11/138 71/91/139 70/90/140
f 63/11/141 61/10/142 72/92/143 71/91/144
f 61/10/145 55/6/146 69/89/147 72/92/148
f 69/89/136 70/90/135 74/94/149 73/93/150
f 70/90/140 71/91/139 75/95/151 74/94/152
f 71/91/144 72/92/143 76/96/153 75/95/154
f 72/92/148 69/89/147 73/93/155 76/96/156
