# This file uses centimeters as units for non-parametric coordinates.

mtllib portal.mtl
g default
v -95.133109 1.989455 -0.907316
v -85.957615 1.989455 3.834738
v -78.253357 1.989455 3.834738
v -69.814485 1.989455 -0.355489
v -95.133109 4.018208 -0.907316
v -85.957615 4.018208 3.834738
v -78.253357 4.018208 3.834738
v -69.978779 4.018208 -0.231843
v -99.796164 4.018208 -10.191020
v -64.354871 4.018208 -10.157255
v -99.795010 4.018208 -18.401400
v -64.525790 4.018208 -18.399052
v -95.133109 4.018208 -26.961800
v -86.314711 4.018208 -31.724544
v -77.896261 4.018208 -31.724544
v -69.077863 4.018208 -26.961800
v -95.133109 1.989455 -26.961800
v -86.314711 1.989455 -31.724544
v -77.896261 1.989455 -31.724542
v -69.077863 1.989455 -26.961800
v -99.749760 1.989455 -18.401144
v -64.550996 1.989455 -18.398453
v -99.841411 1.989455 -10.191275
v -64.304016 1.989455 -10.175372
v -78.253357 4.018208 -1.118478
v -85.957615 4.018208 -1.118478
v -98.326608 4.018208 -4.308791
v -98.343469 1.989455 -4.306326
v -85.957615 1.989455 -1.118478
v -78.253357 1.989455 -1.118478
v -66.587554 1.989455 -3.770654
v -66.752783 4.018208 -3.651917
v -69.172925 4.018208 -10.227903
v -69.457106 4.018208 -18.435688
v -71.786350 4.018208 -28.928257
v -71.786350 1.989455 -28.928257
v -69.467188 1.989455 -18.423492
v -69.155388 1.989455 -10.223114
v -71.595489 1.989455 -4.728290
v -71.794173 1.989455 1.470741
v -71.922807 4.018208 1.564541
v -71.668727 4.018208 -4.672355
v -94.782191 4.018208 -10.252351
v -94.524241 4.018208 -18.458864
v -92.267675 4.018208 -29.027475
v -92.267675 1.989455 -29.027475
v -94.508245 1.989455 -18.438527
v -94.796563 1.989455 -10.234598
v -92.594357 1.989455 -4.818554
v -92.716146 1.989455 1.228315
v -92.716146 4.018208 1.228315
v -92.594357 4.018208 -4.818554
v -86.314711 4.018208 -27.185863
v -91.938295 4.018208 -23.851457
v -97.267407 4.018208 -24.257815
v -97.253719 1.989455 -24.254331
v -91.938295 1.989455 -23.851457
v -86.314711 1.989455 -27.185863
v -77.896261 1.989455 -27.185863
v -72.083379 1.989455 -23.799367
v -66.961917 1.989455 -24.253122
v -66.954308 4.018208 -24.255043
v -72.083379 4.018208 -23.799366
v -77.896261 4.018208 -27.185863
vt 0.375000 0.000000
vt 0.458333 0.000000
vt 0.541667 0.000000
vt 0.625000 0.000000
vt 0.375000 0.250000
vt 0.458333 0.250000
vt 0.541667 0.250000
vt 0.625000 0.250000
vt 0.375000 0.333333
vt 0.625000 0.333333
vt 0.375000 0.416667
vt 0.625000 0.416667
vt 0.375000 0.500000
vt 0.458333 0.500000
vt 0.541667 0.500000
vt 0.625000 0.500000
vt 0.375000 0.750000
vt 0.458333 0.750000
vt 0.541667 0.750000
vt 0.625000 0.750000
vt 0.375000 0.833333
vt 0.625000 0.833333
vt 0.375000 0.916667
vt 0.625000 0.916667
vt 0.375000 1.000000
vt 0.458333 1.000000
vt 0.541667 1.000000
vt 0.625000 1.000000
vt 0.875000 0.000000
vt 0.791667 0.000000
vt 0.708333 0.000000
vt 0.875000 0.250000
vt 0.791667 0.250000
vt 0.708333 0.250000
vt 0.125000 0.000000
vt 0.208333 0.000000
vt 0.291667 0.000000
vt 0.125000 0.250000
vt 0.208333 0.250000
vt 0.291667 0.250000
vt 0.541667 0.289713
vt 0.458333 0.289713
vt 0.335287 0.250000
vt 0.375000 0.289713
vt 0.335287 0.000000
vt 0.375000 0.960286
vt 0.458333 0.960286
vt 0.541667 0.960286
vt 0.625000 0.960286
vt 0.664713 0.000000
vt 0.625000 0.289713
vt 0.664713 0.250000
vt 0.590402 0.333333
vt 0.590402 0.416667
vt 0.590402 0.500000
vt 0.590402 0.750000
vt 0.590402 0.833333
vt 0.590402 0.916667
vt 0.590402 0.960286
vt 0.590402 0.000000
vt 0.590402 1.000000
vt 0.590402 0.250000
vt 0.590402 0.289713
vt 0.411361 0.333333
vt 0.411361 0.416667
vt 0.411361 0.500000
vt 0.411361 0.750000
vt 0.411361 0.833333
vt 0.411361 0.916667
vt 0.411361 0.960286
vt 0.411361 0.000000
vt 0.411361 1.000000
vt 0.411361 0.250000
vt 0.411361 0.289713
vt 0.458333 0.468092
vt 0.411361 0.468092
vt 0.156908 0.250000
vt 0.375000 0.468092
vt 0.156908 0.000000
vt 0.375000 0.781908
vt 0.411361 0.781908
vt 0.458333 0.781908
vt 0.541667 0.781908
vt 0.590402 0.781908
vt 0.625000 0.781908
vt 0.843092 0.000000
vt 0.625000 0.468092
vt 0.843092 0.250000
vt 0.590402 0.468092
vt 0.541667 0.468092
vn -0.662147 0.000000 0.749374
vn -0.459126 0.000000 0.888371
vn -0.459126 0.000000 0.888371
vn -0.662147 0.000000 0.749374
vn -0.177359 0.000000 0.984146
vn 0.162166 -0.005205 0.986750
vn 0.162166 -0.005205 0.986750
vn -0.177359 0.000000 0.984146
vn 0.445433 -0.005085 0.895301
vn 0.440432 -0.005373 0.897770
vn 0.000000 1.000000 0.000000
vn 0.000000 1.000000 -0.000000
vn 0.000000 1.000000 -0.000000
vn 0.000000 1.000000 0.000000
vn 0.000000 1.000000 -0.000000
vn 0.000000 1.000000 0.000000
vn 0.000000 1.000000 0.000000
vn 0.000000 1.000000 -0.000000
vn 0.000000 1.000000 0.000000
vn 0.000000 1.000000 0.000000
vn 0.000000 1.000000 0.000000
vn 0.000000 1.000000 0.000000
vn 0.000000 1.000000 0.000000
vn 0.000000 1.000000 0.000000
vn 0.000000 1.000000 0.000000
vn 0.000000 1.000000 0.000000
vn -0.584782 0.000000 -0.811190
vn -0.475211 0.000000 -0.879872
vn -0.475211 0.000000 -0.879872
vn -0.584782 0.000000 -0.811190
vn -0.184449 -0.000000 -0.982842
vn 0.189002 -0.000000 -0.981977
vn 0.189002 -0.000000 -0.981977
vn -0.184449 -0.000000 -0.982842
vn 0.475211 -0.000000 -0.879872
vn 0.475211 -0.000000 -0.879872
vn 0.000000 -1.000000 -0.000000
vn 0.000000 -1.000000 -0.000000
vn 0.000000 -1.000000 0.000000
vn 0.000000 -1.000000 0.000000
vn 0.000000 -1.000000 0.000000
vn 0.000000 -1.000000 0.000000
vn 0.000000 -1.000000 0.000000
vn 0.000000 -1.000000 -0.000000
vn 0.000000 -1.000000 -0.000000
vn 0.000000 -1.000000 -0.000000
vn 0.000000 -1.000000 -0.000000
vn 0.000000 -1.000000 0.000000
vn 0.000000 -1.000000 0.000000
vn 0.000000 -1.000000 -0.000000
vn 0.000000 -1.000000 0.000000
vn 0.000000 -1.000000 0.000000
vn 0.983015 0.000281 -0.183526
vn 0.883498 -0.005668 -0.468401
vn 0.883530 -0.005669 -0.468340
vn 0.983052 0.000289 -0.183329
vn 0.989479 0.021361 0.143088
vn 0.989326 0.021452 0.144130
vn 0.727032 0.018043 0.686367
vn 0.872607 0.031032 0.487436
vn 0.868643 0.030633 0.494492
vn 0.727032 0.018043 0.686367
vn -0.879119 -0.010094 -0.476496
vn -0.983802 -0.006118 -0.179155
vn -0.983877 -0.006103 -0.178743
vn -0.879176 -0.010099 -0.476390
vn -0.994828 0.006409 0.101374
vn -0.994811 0.006419 0.101541
vn -0.892772 0.010287 0.450392
vn -0.728014 0.003442 0.685554
vn -0.728014 0.003442 0.685554
vn -0.892610 0.010279 0.450713
vn 0.000000 1.000000 0.000000
vn 0.000000 1.000000 0.000000
vn 0.000000 1.000000 0.000000
vn 0.000000 1.000000 0.000000
vn 0.000000 1.000000 0.000000
vn 0.000000 1.000000 0.000000
vn 0.587516 0.000000 -0.809212
vn 0.587516 0.000000 -0.809212
vn 0.000000 -1.000000 -0.000000
vn 0.000000 -1.000000 0.000000
vn 0.000000 -1.000000 -0.000000
vn 0.000000 -1.000000 -0.000000
vn 0.000000 -1.000000 -0.000000
vn 0.000000 -1.000000 -0.000000
vn 0.000000 -1.000000 0.000000
vn 0.000000 -1.000000 0.000000
vn 0.678322 0.009598 0.734702
vn 0.678322 0.009598 0.734702
vn 0.000000 1.000000 0.000000
vn 0.000000 1.000000 0.000000
vn 0.000000 1.000000 0.000000
vn 0.000000 1.000000 0.000000
vn 0.000000 1.000000 0.000000
vn 0.000000 1.000000 0.000000
vn -0.786099 -0.003183 -0.618092
vn -0.786099 -0.003183 -0.618092
vn 0.000000 -1.000000 -0.000000
vn 0.000000 -1.000000 -0.000000
vn 0.000000 -1.000000 0.000000
vn 0.000000 -1.000000 0.000000
vn 0.000000 -1.000000 0.000000
vn 0.000000 -1.000000 0.000000
vn 0.000000 -1.000000 0.000000
vn 0.000000 -1.000000 -0.000000
vn 0.787410 -0.001769 -0.616427
vn 0.787410 -0.001769 -0.616427
vn 0.000000 1.000000 0.000000
vn 0.000000 1.000000 0.000000
vn 0.000000 1.000000 0.000000
vn 0.000000 1.000000 0.000000
vn 0.000000 0.000000 -1.000000
vn 0.000000 0.000000 -1.000000
vn 0.000000 0.000000 -1.000000
vn 0.000000 0.000000 -1.000000
vn -0.475801 0.003537 -0.879546
vn -0.475801 0.003537 -0.879546
vn -0.475801 0.003537 -0.879546
vn -0.475801 0.003537 -0.879546
vn -0.912948 -0.015283 -0.407789
vn -0.912948 -0.015283 -0.407789
vn -0.912948 -0.015283 -0.407789
vn -0.912948 -0.015283 -0.407789
vn -0.999340 -0.001684 0.036298
vn -0.999340 -0.001684 0.036298
vn -0.999340 -0.001684 0.036298
vn -0.999340 -0.001684 0.036298
vn -0.898642 0.003551 0.438668
vn -0.898642 0.003551 0.438668
vn -0.898642 0.003551 0.438668
vn -0.898642 0.003551 0.438668
vn -0.503388 -0.000000 0.864060
vn -0.503388 -0.000000 0.864060
vn -0.503388 -0.000000 0.864060
vn -0.503388 -0.000000 0.864060
vn 0.000000 0.000000 1.000000
vn 0.000000 0.000000 1.000000
vn 0.000000 0.000000 1.000000
vn 0.000000 0.000000 1.000000
vn 0.510019 0.000000 0.860163
vn 0.510019 0.000000 0.860163
vn 0.510019 0.000000 0.860163
vn 0.510019 0.000000 0.860163
vn 0.902508 0.005717 0.430635
vn 0.902508 0.005717 0.430635
vn 0.902508 0.005717 0.430635
vn 0.902508 0.005717 0.430635
vn 0.999446 0.000713 0.033269
vn 0.999446 0.000713 0.033269
vn 0.999446 0.000713 0.033269
vn 0.999446 0.000713 0.033269
vn 0.926982 -0.004924 -0.375073
vn 0.926982 -0.004924 -0.375073
vn 0.926982 -0.004924 -0.375073
vn 0.926982 -0.004924 -0.375073
vn 0.486949 0.000000 -0.873430
vn 0.486949 0.000000 -0.873430
vn 0.486949 0.000000 -0.873430
vn 0.486949 0.000000 -0.873430
g pCube4
usemtl initialShadingGroup
f 1/1/1 50/71/2 51/73/3 5/5/4
f 2/2/5 3/3/6 7/7/7 6/6/8
f 3/3/6 40/60/9 41/62/10 7/7/7
f 5/5/11 51/73/12 52/74/13 27/44/14
f 6/6/15 7/7/16 25/41/17 26/42/18
f 7/7/16 41/62/19 42/63/20 25/41/17
f 9/9/21 43/64/22 44/65/23 11/11/24
f 11/11/24 44/65/23 54/76/25 55/78/26
f 13/13/27 45/66/28 46/67/29 17/17/30
f 14/14/31 15/15/32 19/19/33 18/18/34
f 15/15/32 35/55/35 36/56/36 19/19/33
f 56/80/37 57/81/38 47/68/39 21/21/40
f 21/21/40 47/68/39 48/69/41 23/23/42
f 28/46/43 49/70/44 50/72/45 1/25/46
f 29/47/47 30/48/48 3/27/49 2/26/50
f 30/48/48 39/59/51 40/61/52 3/27/49
f 22/30/53 61/86/54 62/88/55 12/33/56
f 24/31/57 22/30/53 12/33/56 10/34/58
f 4/4/59 31/50/60 32/52/61 8/8/62
f 56/79/63 21/36/64 11/39/65 55/77/66
f 21/36/64 23/37/67 9/40/68 11/39/65
f 28/45/69 1/1/70 5/5/71 27/43/72
f 27/44/14 52/74/13 43/64/22 9/9/21
f 23/37/67 28/45/69 27/43/72 9/40/68
f 23/23/42 48/69/41 49/70/44 28/46/43
f 32/52/61 31/50/60 24/31/57 10/34/58
f 33/53/73 10/10/74 12/12/75 34/54/76
f 63/89/77 34/54/76 12/12/75 62/87/78
f 36/56/36 35/55/35 16/16/79 20/20/80
f 37/57/81 60/84/82 61/85/83 22/22/84
f 38/58/85 37/57/81 22/22/84 24/24/86
f 39/59/51 38/58/85 24/24/86 31/49/87
f 40/61/52 39/59/51 31/49/87 4/28/88
f 41/62/10 40/60/9 4/4/89 8/8/90
f 42/63/20 41/62/19 8/8/91 32/51/92
f 33/53/73 42/63/20 32/51/92 10/10/74
f 46/67/29 45/66/28 14/14/31 18/18/34
f 50/72/45 49/70/44 29/47/47 2/26/50
f 51/73/3 50/71/2 2/2/5 6/6/8
f 52/74/13 51/73/12 6/6/15 26/42/18
f 45/66/93 54/76/25 53/75/94 14/14/95
f 55/78/26 54/76/25 45/66/93 13/13/96
f 17/35/97 56/79/63 55/77/66 13/38/98
f 17/17/99 46/67/100 57/81/38 56/80/37
f 58/82/101 57/81/38 46/67/100 18/18/102
f 18/18/102 19/19/103 59/83/104 58/82/101
f 19/19/103 36/56/105 60/84/82 59/83/104
f 61/85/83 60/84/82 36/56/105 20/20/106
f 62/88/55 61/86/54 20/29/107 16/32/108
f 35/55/109 63/89/77 62/87/78 16/16/110
f 64/90/111 63/89/77 35/55/109 15/15/112
f 53/75/94 64/90/111 15/15/112 14/14/95
f 26/42/113 25/41/114 30/48/115 29/47/116
f 25/41/117 42/63/118 39/59/119 30/48/120
f 42/63/121 33/53/122 38/58/123 39/59/124
f 33/53/125 34/54/126 37/57/127 38/58/128
f 34/54/129 63/89/130 60/84/131 37/57/132
f 63/89/133 64/90/134 59/83/135 60/84/136
f 64/90/137 53/75/138 58/82/139 59/83/140
f 53/75/141 54/76/142 57/81/143 58/82/144
f 54/76/145 44/65/146 47/68/147 57/81/148
f 44/65/149 43/64/150 48/69/151 47/68/152
f 43/64/153 52/74/154 49/70/155 48/69/156
f 52/74/157 26/42/158 29/47/159 49/70/160
