# This file uses centimeters as units for non-parametric coordinates.

mtllib steak1b.mtl
g default
v -35.135062 2.850959 -4.855276
v -33.760440 2.850959 -4.646958
v -28.742411 2.850959 -4.438640
v -25.104264 2.850959 -4.230322
v -22.131667 2.850959 -3.977428
v -19.333968 2.850959 -4.114335
v -33.920052 2.850959 -10.158710
v -32.361958 2.850959 -9.950391
v -27.868293 2.850959 -9.742074
v -25.184476 2.850959 -9.533755
v -22.215414 2.850959 -9.280860
v -19.579758 2.850959 -9.026196
v -31.185333 2.850959 -13.374851
v -29.806761 2.850959 -14.308773
v -26.061291 2.850959 -18.046577
v -22.914889 2.850959 -17.596492
v -21.583737 2.850959 -14.949063
v -21.071572 2.850959 -11.704151
v -26.583658 2.850959 -4.315031
v -25.593960 2.850959 -9.618465
v -24.194323 2.850959 -17.779512
v -23.406543 2.850959 -4.085888
v -23.305246 2.850959 -9.389321
v -22.154637 2.850959 -16.084483
v -25.882324 2.430356 -4.131640
v -25.041099 2.434628 -4.053948
v -25.319554 2.162891 -8.995749
v -25.086710 2.167163 -8.918056
v -26.995524 2.850959 -15.451638
v -31.127817 2.850959 -12.055458
v -32.599203 2.850959 -11.712083
v -20.300293 2.850959 -10.319629
v -21.910319 2.850959 -12.018561
v -22.749510 2.850959 -12.623036
v -24.088282 2.850959 -13.427999
v -24.917945 2.850959 -15.258741
v -31.185333 1.632927 -13.374851
v -29.806761 1.632927 -14.308773
v -26.061291 1.632927 -18.046577
v -22.914889 1.632927 -17.596492
v -21.583737 1.632927 -14.949063
v -21.071572 1.632927 -11.704151
v -19.579759 1.632927 -9.026195
v -19.333968 1.632927 -4.114335
v -33.920052 1.632927 -10.158709
v -35.135062 1.632927 -4.855276
v -24.194323 1.632927 -17.779512
v -22.154637 1.632927 -16.084483
v -32.599203 1.632927 -11.712082
v -20.300293 1.632927 -10.319628
v -35.135062 0.414895 -4.855276
v -33.760440 0.414895 -4.646958
v -28.742411 0.414895 -4.438640
v -25.104264 0.414895 -4.230322
v -22.131667 0.414895 -3.977428
v -19.333968 0.414895 -4.114335
v -33.920052 0.414895 -10.158710
v -32.361958 0.414895 -9.950391
v -27.868293 0.414895 -9.742074
v -25.184476 0.414895 -9.533755
v -22.215414 0.414895 -9.280860
v -19.579758 0.414895 -9.026196
v -31.185333 0.414895 -13.374851
v -29.806761 0.414895 -14.308773
v -26.061291 0.414895 -18.046577
v -22.914889 0.414895 -17.596492
v -21.583737 0.414895 -14.949063
v -21.071572 0.414895 -11.704151
v -26.583658 0.414895 -4.315031
v -25.593960 0.414895 -9.618465
v -24.194323 0.414895 -17.779512
v -23.406543 0.414895 -4.085888
v -23.305246 0.414895 -9.389321
v -22.154637 0.414895 -16.084483
v -25.882324 0.835498 -4.131640
v -25.041099 0.831226 -4.053948
v -25.319554 1.102963 -8.995749
v -25.086710 1.098691 -8.918056
v -26.995524 0.414895 -15.451638
v -31.127817 0.414895 -12.055458
v -32.599203 0.414895 -11.712083
v -20.300293 0.414895 -10.319629
v -21.910319 0.414895 -12.018561
v -22.749510 0.414895 -12.623036
v -24.088282 0.414895 -13.427999
v -24.917945 0.414895 -15.258741
vt 0.375000 0.400000
vt 0.425000 0.400000
vt 0.475000 0.400000
vt 0.525000 0.400000
vt 0.575000 0.400000
vt 0.625000 0.400000
vt 0.375000 0.450000
vt 0.425000 0.450000
vt 0.475000 0.450000
vt 0.525000 0.450000
vt 0.575000 0.450000
vt 0.625000 0.450000
vt 0.375000 0.500000
vt 0.425000 0.500000
vt 0.475000 0.500000
vt 0.525000 0.500000
vt 0.575000 0.500000
vt 0.625000 0.500000
vt 0.875000 0.250000
vt 0.825000 0.250000
vt 0.775000 0.250000
vt 0.125000 0.250000
vt 0.175000 0.250000
vt 0.225000 0.250000
vt 0.504668 0.400000
vt 0.504668 0.450000
vt 0.504668 0.500000
vt 0.553556 0.400000
vt 0.553556 0.450000
vt 0.553556 0.500000
vt 0.504668 0.400000
vt 0.525000 0.400000
vt 0.504668 0.450000
vt 0.525000 0.450000
vt 0.475000 0.474150
vt 0.425000 0.474150
vt 0.150850 0.250000
vt 0.375000 0.474150
vt 0.625000 0.474150
vt 0.849150 0.250000
vt 0.575000 0.474150
vt 0.553556 0.474150
vt 0.525000 0.474150
vt 0.504668 0.474150
vt 0.125000 0.125000
vt 0.375000 0.625000
vt 0.425000 0.625000
vt 0.475000 0.625000
vt 0.525000 0.625000
vt 0.575000 0.625000
vt 0.625000 0.625000
vt 0.875000 0.125000
vt 0.825000 0.125000
vt 0.775000 0.125000
vt 0.175000 0.125000
vt 0.225000 0.125000
vt 0.504668 0.625000
vt 0.553556 0.625000
vt 0.150850 0.125000
vt 0.849150 0.125000
vt 0.425000 0.400000
vt 0.375000 0.400000
vt 0.475000 0.400000
vt 0.504668 0.400000
vt 0.553556 0.400000
vt 0.525000 0.400000
vt 0.625000 0.400000
vt 0.575000 0.400000
vt 0.425000 0.450000
vt 0.375000 0.450000
vt 0.475000 0.450000
vt 0.504668 0.450000
vt 0.553556 0.450000
vt 0.525000 0.450000
vt 0.625000 0.450000
vt 0.575000 0.450000
vt 0.425000 0.474150
vt 0.375000 0.474150
vt 0.475000 0.474150
vt 0.504668 0.474150
vt 0.553556 0.474150
vt 0.525000 0.474150
vt 0.625000 0.474150
vt 0.575000 0.474150
vt 0.375000 0.500000
vt 0.425000 0.500000
vt 0.425000 0.625000
vt 0.375000 0.625000
vt 0.475000 0.500000
vt 0.475000 0.625000
vt 0.504668 0.500000
vt 0.504668 0.625000
vt 0.525000 0.500000
vt 0.553556 0.500000
vt 0.553556 0.625000
vt 0.525000 0.625000
vt 0.575000 0.500000
vt 0.625000 0.500000
vt 0.625000 0.625000
vt 0.575000 0.625000
vt 0.504668 0.400000
vt 0.525000 0.400000
vt 0.504668 0.450000
vt 0.525000 0.450000
vt 0.849150 0.250000
vt 0.849150 0.125000
vt 0.875000 0.125000
vt 0.875000 0.250000
vt 0.825000 0.125000
vt 0.825000 0.250000
vt 0.775000 0.125000
vt 0.775000 0.250000
vt 0.150850 0.125000
vt 0.175000 0.125000
vt 0.175000 0.250000
vt 0.150850 0.250000
vt 0.225000 0.125000
vt 0.225000 0.250000
vt 0.125000 0.125000
vt 0.125000 0.250000
vn 0.000000 1.000000 0.000000
vn 0.000000 1.000000 -0.000000
vn 0.000000 1.000000 -0.000000
vn 0.000000 1.000000 0.000000
vn 0.000000 1.000000 -0.000000
vn 0.000000 1.000000 -0.000000
vn 0.000000 1.000000 -0.000000
vn 0.000000 1.000000 -0.000000
vn 0.000000 1.000000 -0.000000
vn 0.000000 1.000000 0.000000
vn 0.000000 1.000000 0.000000
vn 0.000000 1.000000 0.000000
vn 0.000000 1.000000 0.000000
vn 0.000000 1.000000 -0.000000
vn 0.000000 1.000000 -0.000000
vn 0.000000 1.000000 0.000000
vn 0.000000 1.000000 -0.000000
vn 0.000000 1.000000 -0.000000
vn 0.000000 1.000000 0.000000
vn 0.000000 1.000000 0.000000
vn 0.000000 1.000000 0.000000
vn 0.000000 1.000000 0.000000
vn 0.000000 1.000000 0.000000
vn 0.000000 1.000000 0.000000
vn -0.560869 0.000000 -0.827905
vn -0.673739 0.000000 -0.738970
vn -0.673739 0.000000 -0.738970
vn -0.560869 0.000000 -0.827905
vn -0.525957 0.000000 -0.850511
vn -0.525957 0.000000 -0.850511
vn 0.141606 0.000000 -0.989923
vn 0.141606 0.000000 -0.989923
vn 0.639136 0.000000 -0.769094
vn 0.893421 0.000000 -0.449220
vn 0.893421 0.000000 -0.449220
vn 0.639136 0.000000 -0.769094
vn 0.970766 0.000000 -0.240028
vn 0.987772 0.000000 -0.155906
vn 0.987772 0.000000 -0.155906
vn 0.970766 0.000000 -0.240028
vn 0.000000 0.998492 -0.054904
vn 0.000000 0.998492 -0.054904
vn 0.000000 0.998492 -0.054904
vn 0.000000 0.998492 -0.054904
vn 0.713932 0.694310 0.090745
vn 0.713932 0.694310 0.090745
vn 0.713932 0.694310 0.090745
vn 0.713932 0.694310 0.090745
vn -0.990910 -0.133595 0.015777
vn -0.990910 -0.133595 0.015777
vn -0.990910 -0.133595 0.015777
vn -0.990910 -0.133595 0.015777
vn -0.194753 0.627614 0.753771
vn -0.194753 0.627614 0.753771
vn -0.194753 0.627614 0.753771
vn -0.194753 0.627614 0.753771
vn 0.000000 1.000000 0.000000
vn 0.000000 1.000000 0.000000
vn 0.000000 1.000000 -0.000000
vn 0.873594 -0.000000 -0.486655
vn 0.873594 0.000000 -0.486655
vn 0.873594 0.000000 -0.486655
vn 0.873594 0.000000 -0.486655
vn 0.000000 1.000000 -0.000000
vn 0.000000 1.000000 -0.000000
vn 0.000000 1.000000 0.000000
vn 0.000000 1.000000 0.000000
vn 0.000000 1.000000 0.000000
vn 0.988091 -0.000000 -0.153871
vn 0.988091 -0.000000 -0.153871
vn 0.998750 -0.000000 -0.049978
vn 0.998750 -0.000000 -0.049978
vn -0.761823 -0.000000 -0.647786
vn -0.937913 -0.000000 -0.346869
vn -0.937913 -0.000000 -0.346869
vn -0.761823 -0.000000 -0.647786
vn -0.974747 0.000000 -0.223313
vn -0.974747 0.000000 -0.223313
vn -0.761822 0.000000 -0.647786
vn -0.761822 -0.000000 -0.647786
vn 0.000000 -1.000000 0.000000
vn 0.000000 -1.000000 0.000000
vn 0.000000 -1.000000 -0.000000
vn 0.000000 -1.000000 0.000000
vn 0.000000 -1.000000 -0.000000
vn 0.000000 -1.000000 -0.000000
vn 0.000000 -1.000000 -0.000000
vn 0.000000 -1.000000 -0.000000
vn 0.000000 -1.000000 0.000000
vn 0.000000 -1.000000 0.000000
vn 0.000000 -1.000000 0.000000
vn 0.000000 -1.000000 0.000000
vn 0.000000 -1.000000 0.000000
vn 0.000000 -1.000000 0.000000
vn 0.000000 -1.000000 0.000000
vn 0.000000 -1.000000 0.000000
vn 0.000000 -1.000000 -0.000000
vn 0.000000 -1.000000 -0.000000
vn 0.000000 -1.000000 -0.000000
vn 0.000000 -1.000000 0.000000
vn 0.000000 -1.000000 0.000000
vn 0.000000 -1.000000 0.000000
vn 0.000000 -1.000000 0.000000
vn 0.000000 -1.000000 0.000000
vn -0.560869 0.000000 -0.827905
vn -0.673739 0.000000 -0.738970
vn -0.525957 0.000000 -0.850511
vn 0.141606 0.000000 -0.989923
vn 0.639136 0.000000 -0.769094
vn 0.893421 0.000000 -0.449220
vn 0.970766 0.000000 -0.240028
vn 0.987772 0.000000 -0.155906
vn 0.000000 -0.998492 -0.054904
vn 0.000000 -0.998492 -0.054904
vn 0.000000 -0.998492 -0.054904
vn 0.000000 -0.998492 -0.054904
vn 0.713932 -0.694310 0.090745
vn 0.713932 -0.694310 0.090745
vn 0.713932 -0.694310 0.090745
vn 0.713932 -0.694310 0.090745
vn -0.990910 0.133595 0.015777
vn -0.990910 0.133595 0.015777
vn -0.990910 0.133595 0.015777
vn -0.990910 0.133595 0.015777
vn -0.194753 -0.627614 0.753772
vn -0.194753 -0.627614 0.753772
vn -0.194753 -0.627614 0.753772
vn -0.194753 -0.627614 0.753771
vn 0.000000 -1.000000 -0.000000
vn 0.000000 -1.000000 0.000000
vn 0.000000 -1.000000 -0.000000
vn 0.873594 0.000000 -0.486655
vn 0.873594 0.000000 -0.486655
vn 0.000000 -1.000000 0.000000
vn 0.000000 -1.000000 0.000000
vn 0.000000 -1.000000 0.000000
vn 0.000000 -1.000000 0.000000
vn 0.000000 -1.000000 0.000000
vn 0.988091 0.000000 -0.153871
vn 0.998750 0.000000 -0.049978
vn -0.761823 0.000000 -0.647786
vn -0.937913 0.000000 -0.346869
vn -0.974747 0.000000 -0.223313
vn -0.761822 0.000000 -0.647786
vn -0.046226 0.000000 0.998931
vn -0.046226 0.000000 0.998931
vn -0.046226 0.000000 0.998931
vn -0.046226 0.000000 0.998931
vn -0.046226 0.000000 0.998931
vn -0.046226 0.000000 0.998931
vn -0.046226 0.000000 0.998931
vn -0.046226 0.000000 0.998931
vn -0.046226 0.000000 0.998931
vn -0.046226 0.000000 0.998931
vn -0.046226 0.000000 0.998931
vn -0.046226 0.000000 0.998931
vn -0.046226 0.000000 0.998931
vn -0.046226 0.000000 0.998931
vn -0.046226 0.000000 0.998931
vn -0.046226 0.000000 0.998931
vn -0.046226 0.000000 0.998931
vn -0.046226 0.000000 0.998931
vn -0.046226 0.000000 0.998931
vn -0.046226 0.000000 0.998931
vn -0.046226 0.000000 0.998931
vn -0.046226 0.000000 0.998931
g steak1b
usemtl initialShadingGroup
f 1/1/1 2/2/2 8/8/3 7/7/4
f 2/2/2 3/3/5 9/9/6 8/8/3
f 3/3/5 19/25/7 20/26/8 9/9/6
f 4/4/9 22/28/10 23/29/11 10/10/12
f 5/5/13 6/6/14 12/12/15 11/11/16
f 7/7/4 8/8/3 30/36/17 31/38/18
f 8/8/3 9/9/6 29/35/19 30/36/17
f 9/9/6 20/26/8 36/44/20 29/35/19
f 10/10/12 23/29/11 34/42/21 35/43/22
f 11/11/16 12/12/15 32/39/23 33/41/24
f 13/13/25 14/14/26 38/47/27 37/46/28
f 14/14/26 15/15/29 39/48/30 38/47/27
f 15/15/29 21/27/31 47/57/32 39/48/30
f 16/16/33 24/30/34 48/58/35 40/49/36
f 17/17/37 18/18/38 42/51/39 41/50/40
f 27/33/41 25/31/42 26/32/43 28/34/44
f 36/44/20 20/26/8 10/10/12 35/43/22
f 23/29/11 22/28/10 5/5/13 11/11/16
f 34/42/21 23/29/11 11/11/16 33/41/24
f 20/26/45 19/25/46 25/31/47 27/33/48
f 4/4/49 10/10/50 28/34/51 26/32/52
f 10/10/53 20/26/54 27/33/55 28/34/56
f 30/36/17 29/35/19 15/15/57 14/14/58
f 31/38/18 30/36/17 14/14/58 13/13/59
f 32/40/60 50/60/61 42/52/62 18/19/63
f 33/41/24 32/39/23 18/18/64 17/17/65
f 24/30/66 34/42/21 33/41/24 17/17/65
f 35/43/22 34/42/21 24/30/66 16/16/67
f 21/27/68 36/44/20 35/43/22 16/16/67
f 29/35/19 36/44/20 21/27/68 15/15/57
f 43/53/69 50/60/61 32/40/60 12/20/70
f 44/54/71 43/53/69 12/20/70 6/21/72
f 49/59/73 45/55/74 7/23/75 31/37/76
f 45/55/74 46/56/77 1/24/78 7/23/75
f 40/49/36 47/57/32 21/27/31 16/16/33
f 41/50/40 48/58/35 24/30/34 17/17/37
f 37/45/79 49/59/73 31/37/76 13/22/80
f 51/62/81 57/70/82 58/69/83 52/61/84
f 52/61/84 58/69/83 59/71/85 53/63/86
f 53/63/86 59/71/85 70/72/87 69/64/88
f 54/66/89 60/74/90 73/73/91 72/65/92
f 55/68/93 61/76/94 62/75/95 56/67/96
f 57/70/82 81/78/97 80/77/98 58/69/83
f 58/69/83 80/77/98 79/79/99 59/71/85
f 59/71/85 79/79/99 86/80/100 70/72/87
f 60/74/90 85/82/101 84/81/102 73/73/91
f 61/76/94 83/84/103 82/83/104 62/75/95
f 63/85/105 37/88/28 38/87/27 64/86/106
f 64/86/106 38/87/27 39/90/30 65/89/107
f 65/89/107 39/90/30 47/92/32 71/91/108
f 66/93/109 40/96/36 48/95/35 74/94/110
f 67/97/111 41/100/40 42/99/39 68/98/112
f 77/103/113 78/104/114 76/102/115 75/101/116
f 86/80/100 85/82/101 60/74/90 70/72/87
f 73/73/91 61/76/94 55/68/93 72/65/92
f 84/81/102 83/84/103 61/76/94 73/73/91
f 70/72/117 77/103/118 75/101/119 69/64/120
f 54/66/121 76/102/122 78/104/123 60/74/124
f 60/74/125 78/104/126 77/103/127 70/72/128
f 80/77/98 64/86/129 65/89/130 79/79/99
f 81/78/97 63/85/131 64/86/129 80/77/98
f 82/105/132 68/108/133 42/107/62 50/106/61
f 83/84/103 67/97/134 68/98/135 82/83/104
f 74/94/136 67/97/134 83/84/103 84/81/102
f 85/82/101 66/93/137 74/94/136 84/81/102
f 71/91/138 66/93/137 85/82/101 86/80/100
f 79/79/99 65/89/130 71/91/138 86/80/100
f 43/109/69 62/110/139 82/105/132 50/106/61
f 44/111/71 56/112/140 62/110/139 43/109/69
f 49/113/73 81/116/141 57/115/142 45/114/74
f 45/114/74 57/115/142 51/118/143 46/117/77
f 40/96/36 66/93/109 71/91/108 47/92/32
f 41/100/40 67/97/111 74/94/110 48/95/35
f 37/119/79 63/120/144 81/116/141 49/113/73
f 2/2/145 1/24/146 46/117/147 51/62/148 52/61/149 53/63/150 69/64/151 75/101/152 76/102/153 54/66/154 72/65/155 55/68/156 56/112/157 44/54/158 6/6/159 5/5/160 22/28/161 4/4/162 26/32/163 25/31/164 19/25/165 3/3/166
