# This file uses centimeters as units for non-parametric coordinates.

mtllib steak1a.mtl
g default
v -32.637055 2.850959 7.212488
v -30.093514 2.642995 9.119835
v -26.915083 2.642995 9.119835
v -23.135173 2.682668 7.713536
v -21.141514 2.642995 9.119835
v -17.851678 2.850959 7.721975
v -35.723561 2.850959 4.516554
v -33.904436 2.642995 4.120974
v -27.278270 2.642995 4.901552
v -23.734878 2.850959 5.063482
v -20.803696 2.642995 5.020497
v -16.793629 2.850959 5.020497
v -36.078185 2.850959 0.468101
v -34.186955 2.850959 0.918187
v -27.522084 2.850959 1.368272
v -24.040331 2.850959 1.784137
v -21.195591 2.850959 1.950172
v -17.071242 2.850959 1.916792
v -34.938220 2.850959 -2.557833
v -33.563598 2.850959 -2.349514
v -28.545569 2.850959 -2.141196
v -24.907422 2.850959 -1.932878
v -21.934825 2.850959 -1.679984
v -19.137126 2.850959 -1.816891
v -25.584571 2.682668 7.671437
v -25.175741 2.850959 4.997635
v -25.456130 2.850959 1.615033
v -26.386816 2.850959 -2.017587
v -22.254507 2.642995 9.119835
v -22.060810 2.642995 5.038932
v -22.415633 2.850959 1.878964
v -23.209701 2.850959 -1.788445
v -25.229303 2.918996 7.052207
v -23.836507 2.921119 7.090819
v -24.177516 2.787471 4.660291
v -24.996831 2.784150 4.599898
v -25.156268 2.613557 1.497504
v -24.351205 2.622086 1.652600
v -25.685482 2.430356 -1.834197
v -24.844258 2.434628 -1.756505
v -22.190934 2.642995 6.925994
v -23.279957 2.723298 7.073747
v -23.918835 2.888853 5.674634
v -25.173179 2.886441 5.630764
v -25.485870 2.723298 6.753883
v -27.002765 2.642995 7.846944
v -31.013566 2.642995 8.072502
v -33.382214 2.850959 6.561623
v -17.596238 2.850959 7.069771
v -21.076766 2.642995 6.650192
v -32.637055 1.632927 7.212488
v -30.093514 1.632927 9.119835
v -26.915083 1.632927 9.119835
v -23.135173 1.632927 7.713536
v -21.141514 1.632927 9.119835
v -17.851678 1.632927 7.721975
v -19.137126 1.632927 -1.816891
v -17.071242 1.632927 1.916793
v -16.793629 1.632927 5.020498
v -34.938220 1.632927 -2.557832
v -36.078185 1.632927 0.468101
v -35.723561 1.632927 4.516554
v -25.584571 1.632927 7.671436
v -22.254507 1.632927 9.119835
v -33.382214 1.632927 6.561623
v -17.596239 1.632927 7.069771
v -32.637055 0.414895 7.212488
v -30.093514 0.622859 9.119835
v -26.915083 0.622859 9.119835
v -23.135173 0.583186 7.713536
v -21.141514 0.622859 9.119835
v -17.851678 0.414895 7.721975
v -35.723561 0.414895 4.516554
v -33.904436 0.622859 4.048856
v -27.278270 0.622859 4.901552
v -23.734878 0.414895 5.063482
v -20.803696 0.622859 5.020497
v -16.793629 0.414895 5.020497
v -36.078185 0.414895 0.468101
v -34.186955 0.414895 0.918187
v -27.522084 0.414895 1.368272
v -24.040331 0.414895 1.784137
v -21.195591 0.414895 1.950172
v -17.071242 0.414895 1.916792
v -34.938220 0.414895 -2.557833
v -33.563598 0.414895 -2.349514
v -28.545569 0.414895 -2.141196
v -24.907422 0.414895 -1.932878
v -21.934825 0.414895 -1.679984
v -19.137126 0.414895 -1.816891
v -25.584571 0.583186 7.671437
v -25.175741 0.414895 4.997635
v -25.456130 0.414895 1.615033
v -26.386816 0.414895 -2.017587
v -22.254507 0.622859 9.119835
v -22.060810 0.622859 5.038932
v -22.415633 0.414895 1.878964
v -23.209701 0.414895 -1.788445
v -25.229303 0.346858 7.052207
v -23.836507 0.344735 7.090819
v -24.177516 0.478383 4.660291
v -24.996831 0.481704 4.599898
v -25.156268 0.652297 1.497504
v -24.351205 0.643768 1.652600
v -25.685482 0.835498 -1.834197
v -24.844258 0.831226 -1.756505
v -22.190934 0.622859 6.925994
v -23.279957 0.542556 7.073747
v -23.918835 0.377001 5.674634
v -25.173179 0.379413 5.630764
v -25.485870 0.542556 6.753883
v -27.002765 0.622859 7.774826
v -31.013566 0.622859 8.000385
v -33.382214 0.414895 6.561623
v -17.596238 0.414895 7.069771
v -21.076766 0.622859 6.650192
vt 0.375000 0.250000
vt 0.425000 0.250000
vt 0.475000 0.250000
vt 0.525000 0.250000
vt 0.575000 0.250000
vt 0.625000 0.250000
vt 0.375000 0.300000
vt 0.425000 0.300000
vt 0.475000 0.300000
vt 0.525000 0.300000
vt 0.575000 0.300000
vt 0.625000 0.300000
vt 0.375000 0.350000
vt 0.425000 0.350000
vt 0.475000 0.350000
vt 0.525000 0.350000
vt 0.575000 0.350000
vt 0.625000 0.350000
vt 0.375000 0.400000
vt 0.425000 0.400000
vt 0.475000 0.400000
vt 0.525000 0.400000
vt 0.575000 0.400000
vt 0.625000 0.400000
vt 0.775000 0.250000
vt 0.725000 0.250000
vt 0.675000 0.250000
vt 0.225000 0.250000
vt 0.275000 0.250000
vt 0.325000 0.250000
vt 0.504668 0.250000
vt 0.504668 0.300000
vt 0.504668 0.350000
vt 0.504668 0.400000
vt 0.553556 0.250000
vt 0.553556 0.300000
vt 0.553556 0.350000
vt 0.553556 0.400000
vt 0.504668 0.250000
vt 0.525000 0.250000
vt 0.525000 0.300000
vt 0.504668 0.300000
vt 0.504668 0.350000
vt 0.525000 0.350000
vt 0.504668 0.400000
vt 0.525000 0.400000
vt 0.553556 0.262071
vt 0.525000 0.262071
vt 0.525000 0.262071
vt 0.504668 0.262071
vt 0.504668 0.262071
vt 0.475000 0.262071
vt 0.425000 0.262071
vt 0.362929 0.250000
vt 0.375000 0.262071
vt 0.625000 0.262071
vt 0.637071 0.250000
vt 0.575000 0.262071
vt 0.375000 0.125000
vt 0.425000 0.136667
vt 0.475000 0.136667
vt 0.525000 0.125000
vt 0.575000 0.136667
vt 0.625000 0.125000
vt 0.775000 0.125000
vt 0.725000 0.125000
vt 0.675000 0.125000
vt 0.225000 0.125000
vt 0.275000 0.125000
vt 0.325000 0.125000
vt 0.504668 0.125000
vt 0.553556 0.136667
vt 0.362929 0.125000
vt 0.637071 0.125000
vt 0.375000 0.250000
vt 0.425000 0.250000
vt 0.425000 0.262071
vt 0.375000 0.262071
vt 0.475000 0.250000
vt 0.475000 0.262071
vt 0.504668 0.250000
vt 0.504668 0.262071
vt 0.525000 0.250000
vt 0.553556 0.250000
vt 0.553556 0.262071
vt 0.525000 0.262071
vt 0.575000 0.250000
vt 0.625000 0.250000
vt 0.625000 0.262071
vt 0.575000 0.262071
vt 0.375000 0.300000
vt 0.425000 0.300000
vt 0.425000 0.350000
vt 0.375000 0.350000
vt 0.475000 0.300000
vt 0.475000 0.350000
vt 0.504668 0.300000
vt 0.504668 0.350000
vt 0.525000 0.300000
vt 0.553556 0.300000
vt 0.553556 0.350000
vt 0.525000 0.350000
vt 0.575000 0.300000
vt 0.625000 0.300000
vt 0.625000 0.350000
vt 0.575000 0.350000
vt 0.425000 0.400000
vt 0.375000 0.400000
vt 0.475000 0.400000
vt 0.504668 0.400000
vt 0.553556 0.400000
vt 0.525000 0.400000
vt 0.625000 0.400000
vt 0.575000 0.400000
vt 0.504668 0.250000
vt 0.525000 0.250000
vt 0.525000 0.262071
vt 0.504668 0.262071
vt 0.504668 0.350000
vt 0.504668 0.300000
vt 0.525000 0.300000
vt 0.525000 0.350000
vt 0.504668 0.400000
vt 0.525000 0.400000
vt 0.504668 0.125000
vt 0.525000 0.125000
vt 0.553556 0.136667
vt 0.575000 0.136667
vt 0.637071 0.250000
vt 0.637071 0.125000
vt 0.675000 0.125000
vt 0.675000 0.250000
vt 0.375000 0.125000
vt 0.425000 0.136667
vt 0.475000 0.136667
vt 0.625000 0.125000
vt 0.775000 0.125000
vt 0.775000 0.250000
vt 0.725000 0.125000
vt 0.725000 0.250000
vt 0.225000 0.125000
vt 0.225000 0.250000
vt 0.275000 0.125000
vt 0.275000 0.250000
vt 0.325000 0.125000
vt 0.325000 0.250000
vt 0.362929 0.125000
vt 0.362929 0.250000
vn 0.249723 0.936843 -0.244873
vn 0.008187 0.999934 -0.008028
vn 0.017339 0.999719 -0.016165
vn 0.130827 0.984728 -0.114868
vn -0.004635 0.999984 0.003323
vn -0.010258 0.999937 0.004452
vn -0.025682 0.999501 0.018410
vn -0.066800 0.997438 0.025615
vn 0.052637 0.998532 0.012809
vn 0.009904 0.999948 0.002410
vn 0.043017 0.999026 0.009857
vn 0.091867 0.995550 0.021010
vn -0.037629 0.999284 -0.003859
vn -0.062236 0.998041 -0.006383
vn -0.057148 0.998285 -0.012711
vn -0.041057 0.999121 -0.008418
vn 0.079491 0.996619 -0.020773
vn 0.021154 0.999535 0.021972
vn 0.006287 0.999585 0.028123
vn 0.029673 0.999479 0.012671
vn -0.014640 0.999416 0.030869
vn -0.008688 0.999474 0.031247
vn -0.058906 0.997764 0.031585
vn -0.031213 0.999309 0.020179
vn 0.073426 0.996979 0.025309
vn 0.040257 0.998606 0.034134
vn 0.018420 0.999638 0.019590
vn 0.024835 0.999639 0.010288
vn -0.029196 0.999330 0.022077
vn -0.034381 0.999203 0.020291
vn -0.015638 0.999626 0.022420
vn -0.008783 0.999747 0.020694
vn 0.000000 1.000000 0.000000
vn 0.000000 1.000000 0.000000
vn 0.000000 1.000000 0.000000
vn 0.000000 1.000000 0.000000
vn 0.000000 1.000000 -0.000000
vn 0.000000 1.000000 -0.000000
vn 0.000000 1.000000 -0.000000
vn 0.000000 1.000000 -0.000000
vn -0.001001 0.999739 -0.022828
vn -0.001001 0.999739 -0.022828
vn -0.000004 0.998923 -0.046392
vn 0.000104 0.998802 -0.048942
vn -0.000000 0.998492 -0.054904
vn 0.000663 0.997682 -0.068041
vn 0.000801 0.997492 -0.070780
vn -0.000000 0.998492 -0.054904
vn -0.000000 0.998492 -0.054904
vn -0.000000 0.998492 -0.054904
vn 0.324685 -0.000000 0.945822
vn 0.344735 0.000000 0.938700
vn -0.394338 0.000000 0.918966
vn -0.366594 -0.000000 0.930381
vn -0.602600 0.000000 0.798043
vn -0.580574 0.000000 0.814208
vn 0.309227 0.000000 0.950988
vn 0.322601 0.000000 0.946535
vn -0.008058 0.933291 0.359030
vn -0.008058 0.933291 0.359030
vn -0.008058 0.933291 0.359030
vn -0.008058 0.933291 0.359030
vn 0.333832 0.942053 -0.033044
vn 0.333832 0.942053 -0.033044
vn 0.333832 0.942053 -0.033044
vn 0.333832 0.942053 -0.033044
vn -0.568721 0.821724 -0.036402
vn -0.579625 0.814107 -0.035557
vn -0.579625 0.814107 -0.035557
vn -0.486689 0.872549 -0.042329
vn 0.532121 0.839343 -0.111136
vn 0.313700 0.947695 -0.058878
vn 0.478262 0.876398 -0.056493
vn 0.538754 0.833804 -0.120479
vn -0.147663 0.989002 -0.008384
vn -0.685751 0.722495 0.088014
vn -0.790885 0.600085 0.119992
vn -0.327961 0.944691 0.001237
vn 0.550321 0.823632 -0.137028
vn 0.550321 0.823632 -0.137028
vn -0.916799 0.363476 0.165425
vn -0.916799 0.363476 0.165425
vn 0.130502 0.991200 -0.022178
vn 0.130502 0.991200 -0.022178
vn 0.931132 0.000000 0.364683
vn 0.931132 0.000000 0.364683
vn 0.994850 -0.000000 0.101357
vn 0.994850 -0.000000 0.101357
vn -0.599938 0.000000 0.800046
vn -0.331665 0.000000 0.943397
vn -0.369187 0.000000 0.929355
vn -0.599938 0.000000 0.800046
vn 0.309645 0.000000 0.950852
vn 0.327141 -0.000000 0.944976
vn 0.391065 0.000000 0.920363
vn 0.391065 0.000000 0.920363
vn 0.945978 -0.000000 -0.324231
vn 0.874990 -0.000000 -0.484141
vn 0.874990 -0.000000 -0.484141
vn 0.945978 -0.000000 -0.324231
vn 0.931132 0.000000 0.364683
vn 0.931132 0.000000 0.364683
vn -0.935795 -0.000000 -0.352544
vn -0.993895 -0.000000 -0.110334
vn -0.993895 0.000001 -0.110334
vn -0.935795 0.000000 -0.352544
vn -0.914493 -0.000000 0.404601
vn -0.914493 0.000000 0.404601
vn -0.657847 0.000000 0.753152
vn -0.657846 0.000000 0.753152
vn -0.657846 0.000000 0.753152
vn -0.657847 0.000000 0.753152
vn 0.224241 -0.951433 -0.210928
vn 0.125962 -0.985876 -0.110369
vn 0.017723 -0.999713 -0.016132
vn 0.008357 -0.999934 -0.007861
vn -0.010502 -0.999935 0.004511
vn -0.004678 -0.999984 0.003126
vn -0.066849 -0.997429 0.025823
vn -0.026661 -0.999486 0.017818
vn 0.052637 -0.998531 0.012809
vn 0.091867 -0.995550 0.021010
vn 0.043017 -0.999026 0.009857
vn 0.009904 -0.999948 0.002410
vn -0.037629 -0.999284 -0.003859
vn -0.041057 -0.999121 -0.008418
vn -0.057148 -0.998285 -0.012711
vn -0.062236 -0.998041 -0.006383
vn 0.079523 -0.996595 -0.021797
vn 0.029804 -0.999475 0.012727
vn 0.006197 -0.999581 0.028271
vn 0.020922 -0.999528 0.022474
vn -0.008880 -0.999467 0.031401
vn -0.014859 -0.999407 0.031057
vn -0.031213 -0.999309 0.020179
vn -0.058976 -0.997755 0.031741
vn 0.073426 -0.996979 0.025309
vn 0.024835 -0.999639 0.010288
vn 0.018420 -0.999638 0.019590
vn 0.040257 -0.998606 0.034134
vn -0.029196 -0.999330 0.022077
vn -0.008783 -0.999747 0.020694
vn -0.015638 -0.999626 0.022420
vn -0.034381 -0.999203 0.020291
vn 0.000000 -1.000000 0.000000
vn 0.000000 -1.000000 0.000000
vn 0.000000 -1.000000 0.000000
vn 0.000000 -1.000000 0.000000
vn 0.000000 -1.000000 -0.000000
vn 0.000000 -1.000000 -0.000000
vn 0.000000 -1.000000 0.000000
vn 0.000000 -1.000000 0.000000
vn -0.001001 -0.999739 -0.022828
vn 0.000104 -0.998802 -0.048942
vn -0.000004 -0.998923 -0.046392
vn -0.001001 -0.999739 -0.022828
vn -0.000000 -0.998492 -0.054904
vn -0.000000 -0.998492 -0.054904
vn 0.000801 -0.997492 -0.070780
vn 0.000663 -0.997682 -0.068041
vn -0.000000 -0.998492 -0.054904
vn -0.000000 -0.998492 -0.054904
vn 0.324685 0.000000 0.945822
vn -0.366594 0.000000 0.930381
vn -0.602600 0.000000 0.798043
vn 0.322601 0.000000 0.946535
vn -0.008058 -0.933291 0.359030
vn -0.008058 -0.933291 0.359030
vn -0.008058 -0.933291 0.359030
vn -0.008058 -0.933291 0.359030
vn 0.333832 -0.942053 -0.033044
vn 0.333832 -0.942053 -0.033044
vn 0.333832 -0.942053 -0.033044
vn 0.333832 -0.942053 -0.033044
vn -0.568721 -0.821724 -0.036402
vn -0.486689 -0.872549 -0.042329
vn -0.579625 -0.814107 -0.035557
vn -0.579625 -0.814108 -0.035557
vn 0.532121 -0.839343 -0.111136
vn 0.538754 -0.833804 -0.120479
vn 0.478262 -0.876398 -0.056493
vn 0.313700 -0.947695 -0.058878
vn -0.147663 -0.989002 -0.008384
vn -0.327961 -0.944691 0.001237
vn -0.790885 -0.600085 0.119992
vn -0.685751 -0.722495 0.088014
vn 0.550321 -0.823632 -0.137028
vn 0.550321 -0.823632 -0.137028
vn -0.916798 -0.363476 0.165425
vn -0.916798 -0.363476 0.165425
vn 0.130502 -0.991200 -0.022178
vn 0.130502 -0.991200 -0.022178
vn 0.931132 0.000000 0.364683
vn 0.994850 0.000000 0.101357
vn -0.599938 0.000000 0.800047
vn -0.369187 0.000000 0.929355
vn 0.327141 0.000000 0.944976
vn 0.391065 0.000000 0.920363
vn 0.945978 0.000000 -0.324231
vn 0.874990 0.000000 -0.484141
vn 0.931132 0.000000 0.364683
vn -0.935795 -0.000001 -0.352544
vn -0.993895 -0.000001 -0.110334
vn -0.914493 -0.000001 0.404601
vn -0.657847 0.000000 0.753152
vn -0.657846 0.000000 0.753152
vn 0.046226 0.000000 -0.998931
vn 0.046226 0.000000 -0.998931
vn 0.046226 0.000000 -0.998931
vn 0.046226 0.000000 -0.998931
vn 0.046226 0.000000 -0.998931
vn 0.046226 0.000000 -0.998931
vn 0.046226 0.000000 -0.998931
vn 0.046226 0.000000 -0.998931
vn 0.046226 0.000000 -0.998931
vn 0.046226 0.000000 -0.998931
vn 0.046226 0.000000 -0.998931
vn 0.046226 0.000000 -0.998931
vn 0.046226 0.000000 -0.998931
vn 0.046226 0.000000 -0.998931
vn 0.046226 0.000000 -0.998931
vn 0.046226 0.000000 -0.998931
vn 0.046226 0.000000 -0.998931
vn 0.046226 0.000000 -0.998931
vn 0.046226 0.000000 -0.998931
vn 0.046226 0.000000 -0.998931
vn 0.046226 0.000000 -0.998931
vn 0.046226 0.000000 -0.998931
g steak1a
usemtl initialShadingGroup
f 1/1/1 2/2/2 47/53/3 48/55/4
f 2/2/2 3/3/5 46/52/6 47/53/3
f 3/3/5 25/31/7 45/51/8 46/52/6
f 4/4/9 29/35/10 41/47/11 42/48/12
f 5/5/13 6/6/14 49/56/15 50/58/16
f 7/7/17 8/8/18 14/14/19 13/13/20
f 8/8/18 9/9/21 15/15/22 14/14/19
f 9/9/21 26/32/23 27/33/24 15/15/22
f 10/10/25 30/36/26 31/37/27 16/16/28
f 11/11/29 12/12/30 18/18/31 17/17/32
f 13/13/20 14/14/19 20/20/33 19/19/34
f 14/14/19 15/15/22 21/21/35 20/20/33
f 15/15/22 27/33/24 28/34/36 21/21/35
f 16/16/28 31/37/27 32/38/37 22/22/38
f 17/17/32 18/18/31 24/24/39 23/23/40
f 33/39/41 34/40/42 43/49/43 44/50/44
f 37/43/45 36/42/46 35/41/47 38/44/48
f 39/45/49 37/43/45 38/44/48 40/46/50
f 25/31/51 63/71/52 54/62/53 4/4/54
f 29/35/10 5/5/13 50/58/16 41/47/11
f 31/37/27 30/36/26 11/11/29 17/17/32
f 32/38/37 31/37/27 17/17/32 23/23/40
f 29/35/55 64/72/56 55/63/57 5/5/58
f 25/31/59 4/4/60 34/40/61 33/39/62
f 4/4/63 42/48/64 43/49/65 34/40/66
f 45/51/67 25/31/68 33/39/69 44/50/70
f 27/33/71 26/32/72 36/42/73 37/43/74
f 10/10/75 16/16/76 38/44/77 35/41/78
f 28/34/79 27/33/71 37/43/74 39/45/80
f 16/16/76 22/22/81 40/46/82 38/44/77
f 42/48/12 41/47/11 30/36/26 10/10/25
f 43/49/83 42/48/84 10/10/75 35/41/78
f 44/50/44 43/49/43 35/41/47 36/42/46
f 26/32/72 45/51/67 44/50/70 36/42/73
f 46/52/6 45/51/8 26/32/23 9/9/21
f 47/53/3 46/52/6 9/9/21 8/8/18
f 48/55/4 47/53/3 8/8/18 7/7/17
f 49/57/85 66/74/86 59/67/87 12/27/88
f 50/58/16 49/56/15 12/12/30 11/11/29
f 41/47/11 50/58/16 11/11/29 30/36/26
f 51/59/89 52/60/90 2/2/91 1/1/92
f 52/60/90 53/61/93 3/3/94 2/2/91
f 53/61/93 63/71/52 25/31/51 3/3/94
f 54/62/53 64/72/56 29/35/55 4/4/54
f 55/63/57 56/64/95 6/6/96 5/5/58
f 58/66/97 57/65/98 24/25/99 18/26/100
f 59/67/87 58/66/97 18/26/100 12/27/88
f 56/64/101 66/74/86 49/57/85 6/6/102
f 60/68/103 61/69/104 13/29/105 19/28/106
f 61/69/104 62/70/107 7/30/108 13/29/105
f 65/73/109 51/59/110 1/1/111 48/54/112
f 62/70/107 65/73/109 48/54/112 7/30/108
f 67/75/113 114/78/114 113/77/115 68/76/116
f 68/76/116 113/77/115 112/80/117 69/79/118
f 69/79/118 112/80/117 111/82/119 91/81/120
f 70/83/121 108/86/122 107/85/123 95/84/124
f 71/87/125 116/90/126 115/89/127 72/88/128
f 73/91/129 79/94/130 80/93/131 74/92/132
f 74/92/132 80/93/131 81/96/133 75/95/134
f 75/95/134 81/96/133 93/98/135 92/97/136
f 76/99/137 82/102/138 97/101/139 96/100/140
f 77/103/141 83/106/142 84/105/143 78/104/144
f 79/94/130 85/108/145 86/107/146 80/93/131
f 80/93/131 86/107/146 87/109/147 81/96/133
f 81/96/133 87/109/147 94/110/148 93/98/135
f 82/102/138 88/112/149 98/111/150 97/101/139
f 83/106/142 89/114/151 90/113/152 84/105/143
f 99/115/153 110/118/154 109/117/155 100/116/156
f 103/119/157 104/122/158 101/121/159 102/120/160
f 105/123/161 106/124/162 104/122/158 103/119/157
f 91/81/163 70/83/164 54/126/53 63/125/52
f 95/84/124 107/85/123 116/90/126 71/87/125
f 97/101/139 83/106/142 77/103/141 96/100/140
f 98/111/150 89/114/151 83/106/142 97/101/139
f 95/84/165 71/87/166 55/128/57 64/127/56
f 91/81/167 99/115/168 100/116/169 70/83/170
f 70/83/171 100/116/172 109/117/173 108/86/174
f 111/82/175 110/118/176 99/115/177 91/81/178
f 93/98/179 103/119/180 102/120/181 92/97/182
f 76/99/183 101/121/184 104/122/185 82/102/186
f 94/110/187 105/123/188 103/119/180 93/98/179
f 82/102/186 104/122/185 106/124/189 88/112/190
f 108/86/122 76/99/137 96/100/140 107/85/123
f 109/117/191 101/121/184 76/99/183 108/86/192
f 110/118/154 102/120/160 101/121/159 109/117/155
f 92/97/182 102/120/181 110/118/176 111/82/175
f 112/80/117 75/95/134 92/97/136 111/82/119
f 113/77/115 74/92/132 75/95/134 112/80/117
f 114/78/114 73/91/129 74/92/132 113/77/115
f 115/129/193 78/132/194 59/131/87 66/130/86
f 116/90/126 77/103/141 78/104/144 115/89/127
f 107/85/123 96/100/140 77/103/141 116/90/126
f 51/133/89 67/75/195 68/76/196 52/134/90
f 52/134/90 68/76/196 69/79/197 53/135/93
f 53/135/93 69/79/197 91/81/163 63/125/52
f 54/126/53 70/83/164 95/84/165 64/127/56
f 55/128/57 71/87/166 72/88/198 56/136/95
f 58/139/97 84/140/199 90/138/200 57/137/98
f 59/131/87 78/132/194 84/140/199 58/139/97
f 56/136/101 72/88/201 115/129/193 66/130/86
f 60/141/103 85/142/202 79/144/203 61/143/104
f 61/143/104 79/144/203 73/146/204 62/145/107
f 65/147/109 114/148/205 67/75/206 51/133/110
f 62/145/107 73/146/204 114/148/205 65/147/109
f 20/20/207 21/21/208 28/34/209 39/45/210 40/46/211 22/22/212 32/38/213 23/23/214 24/25/215 57/137/216 90/113/217 89/114/218 98/111/219 88/112/220 106/124/221 105/123/222 94/110/223 87/109/224 86/107/225 85/142/226 60/68/227 19/19/228
