# This file uses centimeters as units for non-parametric coordinates.

mtllib steak2a.mtl
g default
v -56.071397 2.850959 7.212488
v -53.527857 2.642995 9.119835
v -50.349426 2.642995 9.119835
v -46.569516 2.682668 7.713536
v -44.575857 2.642995 9.119835
v -41.286020 2.850959 7.721975
v -59.157904 2.850959 4.516554
v -57.338779 2.642995 4.120974
v -50.712613 2.642995 4.901552
v -47.169221 2.850959 5.063482
v -44.238039 2.642995 5.020497
v -40.227972 2.850959 5.020497
v -49.018914 2.682668 7.671437
v -48.610084 2.850959 4.997635
v -45.688850 2.642995 9.119835
v -45.495153 2.642995 5.038932
v -48.663646 2.918996 7.052207
v -47.270849 2.921119 7.090819
v -47.611859 2.787471 4.660291
v -48.431174 2.784150 4.599898
v -45.625276 2.642995 6.925994
v -46.714299 2.723298 7.073747
v -47.353178 2.888853 5.674634
v -48.607522 2.886441 5.630764
v -48.920212 2.723298 6.753883
v -50.437108 2.642995 7.846944
v -54.447908 2.642995 8.072502
v -56.816557 2.850959 6.561623
v -41.030581 2.850959 7.069771
v -44.511109 2.642995 6.650192
v -56.071397 1.632927 7.212488
v -53.527857 1.632927 9.119835
v -50.349426 1.632927 9.119835
v -46.569516 1.632927 7.713536
v -44.575857 1.632927 9.119835
v -41.286020 1.632927 7.721975
v -40.227972 1.632927 5.020498
v -59.157904 1.632927 4.516554
v -49.018914 1.632927 7.671436
v -45.688850 1.632927 9.119835
v -56.816557 1.632927 6.561623
v -41.030581 1.632927 7.069771
v -56.071397 0.414895 7.212488
v -53.527857 0.622859 9.119835
v -50.349426 0.622859 9.119835
v -46.569516 0.583186 7.713536
v -44.575857 0.622859 9.119835
v -41.286020 0.414895 7.721975
v -59.157904 0.414895 4.516554
v -57.338779 0.622859 4.048856
v -50.712613 0.622859 4.901552
v -47.169221 0.414895 5.063482
v -44.238039 0.622859 5.020497
v -40.227972 0.414895 5.020497
v -49.018914 0.583186 7.671437
v -48.610084 0.414895 4.997635
v -45.688850 0.622859 9.119835
v -45.495153 0.622859 5.038932
v -48.663646 0.346858 7.052207
v -47.270849 0.344735 7.090819
v -47.611859 0.478383 4.660291
v -48.431174 0.481704 4.599898
v -45.625276 0.622859 6.925994
v -46.714299 0.542556 7.073747
v -47.353178 0.377001 5.674634
v -48.607522 0.379413 5.630764
v -48.920212 0.542556 6.753883
v -50.437108 0.622859 7.774826
v -54.447908 0.622859 8.000385
v -56.816557 0.414895 6.561623
v -41.030581 0.414895 7.069771
v -44.511109 0.622859 6.650192
vt 0.375000 0.250000
vt 0.425000 0.250000
vt 0.475000 0.250000
vt 0.525000 0.250000
vt 0.575000 0.250000
vt 0.625000 0.250000
vt 0.375000 0.300000
vt 0.425000 0.300000
vt 0.475000 0.300000
vt 0.525000 0.300000
vt 0.575000 0.300000
vt 0.625000 0.300000
vt 0.675000 0.250000
vt 0.325000 0.250000
vt 0.504668 0.250000
vt 0.504668 0.300000
vt 0.553556 0.250000
vt 0.553556 0.300000
vt 0.504668 0.250000
vt 0.525000 0.250000
vt 0.525000 0.300000
vt 0.504668 0.300000
vt 0.553556 0.262071
vt 0.525000 0.262071
vt 0.525000 0.262071
vt 0.504668 0.262071
vt 0.504668 0.262071
vt 0.475000 0.262071
vt 0.425000 0.262071
vt 0.362929 0.250000
vt 0.375000 0.262071
vt 0.625000 0.262071
vt 0.637071 0.250000
vt 0.575000 0.262071
vt 0.375000 0.125000
vt 0.425000 0.136667
vt 0.475000 0.136667
vt 0.525000 0.125000
vt 0.575000 0.136667
vt 0.625000 0.125000
vt 0.675000 0.125000
vt 0.325000 0.125000
vt 0.504668 0.125000
vt 0.553556 0.136667
vt 0.362929 0.125000
vt 0.637071 0.125000
vt 0.375000 0.250000
vt 0.425000 0.250000
vt 0.425000 0.262071
vt 0.375000 0.262071
vt 0.475000 0.250000
vt 0.475000 0.262071
vt 0.504668 0.250000
vt 0.504668 0.262071
vt 0.525000 0.250000
vt 0.553556 0.250000
vt 0.553556 0.262071
vt 0.525000 0.262071
vt 0.575000 0.250000
vt 0.625000 0.250000
vt 0.625000 0.262071
vt 0.575000 0.262071
vt 0.375000 0.300000
vt 0.425000 0.300000
vt 0.475000 0.300000
vt 0.504668 0.300000
vt 0.525000 0.300000
vt 0.553556 0.300000
vt 0.575000 0.300000
vt 0.625000 0.300000
vt 0.504668 0.250000
vt 0.525000 0.250000
vt 0.525000 0.262071
vt 0.504668 0.262071
vt 0.504668 0.300000
vt 0.525000 0.300000
vt 0.504668 0.125000
vt 0.525000 0.125000
vt 0.553556 0.136667
vt 0.575000 0.136667
vt 0.637071 0.250000
vt 0.637071 0.125000
vt 0.675000 0.125000
vt 0.675000 0.250000
vt 0.375000 0.125000
vt 0.425000 0.136667
vt 0.475000 0.136667
vt 0.625000 0.125000
vt 0.325000 0.125000
vt 0.325000 0.250000
vt 0.362929 0.125000
vt 0.362929 0.250000
vn 0.249723 0.936843 -0.244873
vn 0.008187 0.999934 -0.008028
vn 0.017339 0.999719 -0.016165
vn 0.130827 0.984728 -0.114868
vn -0.004635 0.999984 0.003323
vn -0.010258 0.999937 0.004452
vn -0.025682 0.999501 0.018410
vn -0.066800 0.997438 0.025615
vn 0.052637 0.998532 0.012809
vn 0.009904 0.999948 0.002410
vn 0.043017 0.999026 0.009857
vn 0.091867 0.995550 0.021010
vn -0.037629 0.999284 -0.003859
vn -0.062236 0.998041 -0.006383
vn -0.057148 0.998285 -0.012711
vn -0.041057 0.999121 -0.008418
vn -0.001001 0.999739 -0.022828
vn -0.001001 0.999739 -0.022828
vn -0.000004 0.998923 -0.046392
vn 0.000104 0.998802 -0.048942
vn 0.324685 -0.000000 0.945822
vn 0.344735 0.000000 0.938700
vn -0.394338 0.000000 0.918966
vn -0.366594 -0.000000 0.930381
vn -0.602600 0.000000 0.798043
vn -0.580574 0.000000 0.814208
vn 0.309227 0.000000 0.950988
vn 0.322601 0.000000 0.946535
vn -0.008058 0.933291 0.359030
vn -0.008058 0.933291 0.359030
vn -0.008058 0.933291 0.359030
vn -0.008058 0.933291 0.359030
vn 0.333832 0.942053 -0.033044
vn 0.333832 0.942053 -0.033044
vn 0.333832 0.942053 -0.033044
vn 0.333832 0.942053 -0.033044
vn -0.568721 0.821724 -0.036402
vn -0.579625 0.814107 -0.035557
vn -0.579625 0.814107 -0.035557
vn -0.486689 0.872549 -0.042329
vn 0.057385 0.998268 0.012981
vn 0.105203 0.994166 0.023798
vn 0.130502 0.991200 -0.022178
vn 0.130502 0.991200 -0.022178
vn 0.130502 0.991200 -0.022178
vn 0.130502 0.991200 -0.022178
vn 0.002236 0.995067 -0.099184
vn 0.002236 0.995067 -0.099184
vn -0.342234 0.938219 -0.051195
vn -0.342234 0.938219 -0.051195
vn -0.072098 0.997044 0.026541
vn -0.011705 0.999922 0.004309
vn 0.052449 0.997574 -0.045763
vn 0.127519 0.985576 -0.111264
vn 0.931132 0.000000 0.364683
vn 0.931132 0.000000 0.364683
vn 0.931132 0.000000 0.364683
vn 0.931132 0.000000 0.364683
vn -0.054544 0.998384 -0.015948
vn -0.044373 0.998931 -0.012974
vn -0.599938 0.000000 0.800046
vn -0.331665 0.000000 0.943397
vn -0.369187 0.000000 0.929355
vn -0.599938 0.000000 0.800046
vn 0.309645 0.000000 0.950852
vn 0.327141 -0.000000 0.944976
vn 0.391065 0.000000 0.920363
vn 0.391065 0.000000 0.920363
vn 0.931132 0.000000 0.364683
vn 0.931132 0.000000 0.364683
vn -0.657847 0.000000 0.753152
vn -0.657846 0.000000 0.753152
vn -0.657846 0.000000 0.753152
vn -0.657847 0.000000 0.753152
vn -0.657847 0.000000 0.753152
vn -0.657847 0.000000 0.753152
vn 0.224241 -0.951433 -0.210928
vn 0.125962 -0.985876 -0.110369
vn 0.017723 -0.999713 -0.016132
vn 0.008357 -0.999934 -0.007861
vn -0.010502 -0.999935 0.004511
vn -0.004678 -0.999984 0.003126
vn -0.066849 -0.997429 0.025823
vn -0.026661 -0.999486 0.017818
vn 0.052637 -0.998531 0.012809
vn 0.091867 -0.995550 0.021010
vn 0.043017 -0.999026 0.009857
vn 0.009904 -0.999948 0.002410
vn -0.037629 -0.999284 -0.003859
vn -0.041057 -0.999121 -0.008418
vn -0.057148 -0.998285 -0.012711
vn -0.062236 -0.998041 -0.006383
vn -0.001001 -0.999739 -0.022828
vn 0.000104 -0.998802 -0.048942
vn -0.000004 -0.998923 -0.046392
vn -0.001001 -0.999739 -0.022828
vn 0.324685 0.000000 0.945822
vn -0.366594 0.000000 0.930381
vn -0.602600 0.000000 0.798043
vn 0.322601 0.000000 0.946535
vn -0.008058 -0.933291 0.359030
vn -0.008058 -0.933291 0.359030
vn -0.008058 -0.933291 0.359030
vn -0.008058 -0.933291 0.359030
vn 0.333832 -0.942053 -0.033044
vn 0.333832 -0.942053 -0.033044
vn 0.333832 -0.942053 -0.033044
vn 0.333832 -0.942053 -0.033044
vn -0.568721 -0.821724 -0.036402
vn -0.486689 -0.872549 -0.042329
vn -0.579625 -0.814107 -0.035557
vn -0.579625 -0.814108 -0.035557
vn 0.105203 -0.994166 0.023798
vn 0.057385 -0.998268 0.012981
vn 0.130502 -0.991200 -0.022178
vn 0.130502 -0.991200 -0.022178
vn 0.130502 -0.991200 -0.022178
vn 0.130502 -0.991200 -0.022178
vn 0.002236 -0.995067 -0.099184
vn 0.002236 -0.995067 -0.099184
vn -0.342234 -0.938219 -0.051195
vn -0.342234 -0.938219 -0.051195
vn -0.011679 -0.999922 0.004340
vn -0.072519 -0.997003 0.026950
vn 0.052049 -0.997611 -0.045414
vn 0.122845 -0.986621 -0.107186
vn 0.931132 0.000000 0.364683
vn 0.931132 0.000000 0.364683
vn -0.044373 -0.998931 -0.012974
vn -0.054544 -0.998384 -0.015948
vn -0.599938 0.000000 0.800047
vn -0.369187 0.000000 0.929355
vn 0.327141 0.000000 0.944976
vn 0.391065 0.000000 0.920363
vn 0.931132 0.000000 0.364683
vn -0.657847 0.000000 0.753152
vn -0.657846 0.000000 0.753152
vn -0.657847 0.000000 0.753152
vn 0.023674 0.007482 -0.999692
vn 0.023674 0.007482 -0.999692
vn 0.023674 0.007482 -0.999692
vn 0.023674 0.007482 -0.999692
vn 0.023674 0.007482 -0.999692
vn 0.023674 0.007482 -0.999692
vn 0.023674 0.007482 -0.999692
vn 0.023674 0.007482 -0.999692
vn 0.023674 0.007482 -0.999692
vn 0.023674 0.007482 -0.999692
vn 0.023674 0.007482 -0.999692
vn 0.023674 0.007482 -0.999692
vn 0.023674 0.007482 -0.999692
vn 0.023674 0.007482 -0.999692
vn 0.023674 0.007482 -0.999692
vn 0.023674 0.007482 -0.999692
vn 0.023674 0.007482 -0.999692
vn 0.023674 0.007482 -0.999692
vn 0.023674 0.007482 -0.999692
vn 0.023674 0.007482 -0.999692
vn 0.023674 0.007482 -0.999692
vn 0.023674 0.007482 -0.999692
g steak2a
usemtl initialShadingGroup
f 1/1/1 2/2/2 27/29/3 28/31/4
f 2/2/2 3/3/5 26/28/6 27/29/3
f 3/3/5 13/15/7 25/27/8 26/28/6
f 4/4/9 15/17/10 21/23/11 22/24/12
f 5/5/13 6/6/14 29/32/15 30/34/16
f 17/19/17 18/20/18 23/25/19 24/26/20
f 13/15/21 39/43/22 34/38/23 4/4/24
f 15/17/10 5/5/13 30/34/16 21/23/11
f 15/17/25 40/44/26 35/39/27 5/5/28
f 13/15/29 4/4/30 18/20/31 17/19/32
f 4/4/33 22/24/34 23/25/35 18/20/36
f 25/27/37 13/15/38 17/19/39 24/26/40
f 22/24/12 21/23/11 16/18/41 10/10/42
f 23/25/43 22/24/44 10/10/45 19/21/46
f 24/26/20 23/25/19 19/21/47 20/22/48
f 14/16/49 25/27/37 24/26/40 20/22/50
f 26/28/6 25/27/8 14/16/51 9/9/52
f 27/29/3 26/28/6 9/9/52 8/8/53
f 28/31/4 27/29/3 8/8/53 7/7/54
f 29/33/55 42/46/56 37/41/57 12/13/58
f 30/34/16 29/32/15 12/12/59 11/11/60
f 21/23/11 30/34/16 11/11/60 16/18/41
f 31/35/61 32/36/62 2/2/63 1/1/64
f 32/36/62 33/37/65 3/3/66 2/2/63
f 33/37/65 39/43/22 13/15/21 3/3/66
f 34/38/23 40/44/26 15/17/25 4/4/24
f 35/39/27 36/40/67 6/6/68 5/5/28
f 36/40/69 42/46/56 29/33/55 6/6/70
f 41/45/71 31/35/72 1/1/73 28/30/74
f 38/42/75 41/45/71 28/30/74 7/14/76
f 43/47/77 70/50/78 69/49/79 44/48/80
f 44/48/80 69/49/79 68/52/81 45/51/82
f 45/51/82 68/52/81 67/54/83 55/53/84
f 46/55/85 64/58/86 63/57/87 57/56/88
f 47/59/89 72/62/90 71/61/91 48/60/92
f 59/71/93 66/74/94 65/73/95 60/72/96
f 55/53/97 46/55/98 34/78/23 39/77/22
f 57/56/88 63/57/87 72/62/90 47/59/89
f 57/56/99 47/59/100 35/80/27 40/79/26
f 55/53/101 59/71/102 60/72/103 46/55/104
f 46/55/105 60/72/106 65/73/107 64/58/108
f 67/54/109 66/74/110 59/71/111 55/53/112
f 64/58/86 52/67/113 58/68/114 63/57/87
f 65/73/115 61/76/116 52/67/117 64/58/118
f 66/74/94 62/75/119 61/76/120 65/73/95
f 56/66/121 62/75/122 66/74/110 67/54/109
f 68/52/81 51/65/123 56/66/124 67/54/83
f 69/49/79 50/64/125 51/65/123 68/52/81
f 70/50/78 49/63/126 50/64/125 69/49/79
f 71/81/127 54/84/128 37/83/57 42/82/56
f 72/62/90 53/69/129 54/70/130 71/61/91
f 63/57/87 58/68/114 53/69/129 72/62/90
f 31/85/61 43/47/131 44/48/132 32/86/62
f 32/86/62 44/48/132 45/51/133 33/87/65
f 33/87/65 45/51/133 55/53/97 39/77/22
f 34/78/23 46/55/98 57/56/99 40/79/26
f 35/80/27 47/59/100 48/60/134 36/88/67
f 36/88/69 48/60/135 71/81/127 42/82/56
f 41/91/71 70/92/136 43/47/137 31/85/72
f 38/89/75 49/90/138 70/92/136 41/91/71
f 8/8/139 9/9/140 14/16/141 20/22/142 19/21/143 10/10/144 16/18/145 11/11/146 12/13/147 37/83/148 54/70/149 53/69/150 58/68/151 52/67/152 61/76/153 62/75/154 56/66/155 51/65/156 50/64/157 49/90/158 38/42/159 7/7/160
