# This file uses centimeters as units for non-parametric coordinates.

mtllib steak2d.mtl
g default
v -56.965869 2.850959 -12.358450
v -55.407775 2.850959 -12.150130
v -50.914111 2.850959 -11.941813
v -48.230293 2.850959 -11.733495
v -45.261231 2.850959 -11.480600
v -42.625575 2.850959 -11.225935
v -54.231150 2.850959 -15.574591
v -52.852578 2.850959 -16.508513
v -49.107108 2.850959 -20.246317
v -45.960706 2.850959 -19.796231
v -44.629554 2.850959 -17.148802
v -44.117389 2.850959 -13.903891
v -48.639777 2.850959 -11.818205
v -47.240140 2.850959 -19.979252
v -46.351063 2.850959 -11.589061
v -45.200454 2.850959 -18.284223
v -50.041341 2.850959 -17.651377
v -54.173634 2.850959 -14.255197
v -55.645020 2.850959 -13.911822
v -43.346110 2.850959 -12.519368
v -44.956136 2.850959 -14.218301
v -45.795327 2.850959 -14.822776
v -47.134099 2.850959 -15.627738
v -47.963762 2.850959 -17.458481
v -54.231150 1.632927 -15.574591
v -52.852578 1.632927 -16.508513
v -49.107108 1.632927 -20.246317
v -45.960706 1.632927 -19.796231
v -44.629554 1.632927 -17.148802
v -44.117389 1.632927 -13.903891
v -42.625576 1.632927 -11.225935
v -56.965869 1.632927 -12.358449
v -47.240140 1.632927 -19.979252
v -45.200454 1.632927 -18.284223
v -55.645020 1.632927 -13.911822
v -43.346110 1.632927 -12.519368
v -56.965869 0.414895 -12.358450
v -55.407775 0.414895 -12.150130
v -50.914111 0.414895 -11.941813
v -48.230293 0.414895 -11.733495
v -45.261231 0.414895 -11.480600
v -42.625575 0.414895 -11.225935
v -54.231150 0.414895 -15.574591
v -52.852578 0.414895 -16.508513
v -49.107108 0.414895 -20.246317
v -45.960706 0.414895 -19.796231
v -44.629554 0.414895 -17.148802
v -44.117389 0.414895 -13.903891
v -48.639777 0.414895 -11.818205
v -47.240140 0.414895 -19.979252
v -46.351063 0.414895 -11.589061
v -45.200454 0.414895 -18.284223
v -50.041341 0.414895 -17.651377
v -54.173634 0.414895 -14.255197
v -55.645020 0.414895 -13.911822
v -43.346110 0.414895 -12.519368
v -44.956136 0.414895 -14.218301
v -45.795327 0.414895 -14.822776
v -47.134099 0.414895 -15.627738
v -47.963762 0.414895 -17.458481
vt 0.375000 0.450000
vt 0.425000 0.450000
vt 0.475000 0.450000
vt 0.525000 0.450000
vt 0.575000 0.450000
vt 0.625000 0.450000
vt 0.375000 0.500000
vt 0.425000 0.500000
vt 0.475000 0.500000
vt 0.525000 0.500000
vt 0.575000 0.500000
vt 0.625000 0.500000
vt 0.875000 0.250000
vt 0.825000 0.250000
vt 0.125000 0.250000
vt 0.175000 0.250000
vt 0.504668 0.450000
vt 0.504668 0.500000
vt 0.553556 0.450000
vt 0.553556 0.500000
vt 0.475000 0.474150
vt 0.425000 0.474150
vt 0.150850 0.250000
vt 0.375000 0.474150
vt 0.625000 0.474150
vt 0.849150 0.250000
vt 0.575000 0.474150
vt 0.553556 0.474150
vt 0.525000 0.474150
vt 0.504668 0.474150
vt 0.125000 0.125000
vt 0.375000 0.625000
vt 0.425000 0.625000
vt 0.475000 0.625000
vt 0.525000 0.625000
vt 0.575000 0.625000
vt 0.625000 0.625000
vt 0.875000 0.125000
vt 0.825000 0.125000
vt 0.175000 0.125000
vt 0.504668 0.625000
vt 0.553556 0.625000
vt 0.150850 0.125000
vt 0.849150 0.125000
vt 0.425000 0.450000
vt 0.375000 0.450000
vt 0.475000 0.450000
vt 0.504668 0.450000
vt 0.553556 0.450000
vt 0.525000 0.450000
vt 0.625000 0.450000
vt 0.575000 0.450000
vt 0.425000 0.474150
vt 0.375000 0.474150
vt 0.475000 0.474150
vt 0.504668 0.474150
vt 0.553556 0.474150
vt 0.525000 0.474150
vt 0.625000 0.474150
vt 0.575000 0.474150
vt 0.375000 0.500000
vt 0.425000 0.500000
vt 0.425000 0.625000
vt 0.375000 0.625000
vt 0.475000 0.500000
vt 0.475000 0.625000
vt 0.504668 0.500000
vt 0.504668 0.625000
vt 0.525000 0.500000
vt 0.553556 0.500000
vt 0.553556 0.625000
vt 0.525000 0.625000
vt 0.575000 0.500000
vt 0.625000 0.500000
vt 0.625000 0.625000
vt 0.575000 0.625000
vt 0.849150 0.250000
vt 0.849150 0.125000
vt 0.875000 0.125000
vt 0.875000 0.250000
vt 0.825000 0.125000
vt 0.825000 0.250000
vt 0.150850 0.125000
vt 0.175000 0.125000
vt 0.175000 0.250000
vt 0.150850 0.250000
vt 0.125000 0.125000
vt 0.125000 0.250000
vn 0.000000 1.000000 0.000000
vn 0.000000 1.000000 -0.000000
vn 0.000000 1.000000 -0.000000
vn 0.000000 1.000000 -0.000000
vn 0.000000 1.000000 -0.000000
vn 0.000000 1.000000 0.000000
vn 0.000000 1.000000 0.000000
vn 0.000000 1.000000 0.000000
vn 0.000000 1.000000 0.000000
vn 0.000000 1.000000 0.000000
vn 0.000000 1.000000 0.000000
vn 0.000000 1.000000 0.000000
vn 0.000000 1.000000 0.000000
vn 0.000000 1.000000 0.000000
vn 0.000000 1.000000 0.000000
vn 0.000000 1.000000 0.000000
vn -0.560869 0.000000 -0.827905
vn -0.673739 0.000000 -0.738970
vn -0.673739 0.000000 -0.738970
vn -0.560869 0.000000 -0.827905
vn -0.525957 0.000000 -0.850511
vn -0.525957 0.000000 -0.850511
vn 0.141606 0.000000 -0.989923
vn 0.141606 0.000000 -0.989923
vn 0.639136 0.000000 -0.769094
vn 0.893421 0.000000 -0.449220
vn 0.893421 0.000000 -0.449220
vn 0.639136 0.000000 -0.769094
vn 0.970766 0.000000 -0.240028
vn 0.987772 0.000000 -0.155906
vn 0.987772 0.000000 -0.155906
vn 0.970766 0.000000 -0.240028
vn 0.000000 1.000000 0.000000
vn 0.000000 1.000000 0.000000
vn 0.000000 1.000000 -0.000000
vn 0.873594 -0.000000 -0.486655
vn 0.873594 0.000000 -0.486655
vn 0.873594 0.000000 -0.486655
vn 0.873594 0.000000 -0.486655
vn 0.000000 1.000000 -0.000000
vn 0.000000 1.000000 -0.000000
vn 0.000000 1.000000 0.000000
vn 0.000000 1.000000 0.000000
vn 0.000000 1.000000 0.000000
vn 0.873594 0.000000 -0.486655
vn 0.873594 -0.000000 -0.486655
vn -0.761823 -0.000000 -0.647786
vn -0.761823 -0.000000 -0.647786
vn -0.761823 -0.000000 -0.647786
vn -0.761823 -0.000000 -0.647786
vn -0.761822 0.000000 -0.647786
vn -0.761822 -0.000000 -0.647786
vn 0.000000 -1.000000 0.000000
vn 0.000000 -1.000000 -0.000000
vn 0.000000 -1.000000 -0.000000
vn 0.000000 -1.000000 -0.000000
vn 0.000000 -1.000000 -0.000000
vn 0.000000 -1.000000 -0.000000
vn 0.000000 -1.000000 0.000000
vn 0.000000 -1.000000 0.000000
vn 0.000000 -1.000000 0.000000
vn 0.000000 -1.000000 0.000000
vn 0.000000 -1.000000 0.000000
vn 0.000000 -1.000000 0.000000
vn 0.000000 -1.000000 0.000000
vn 0.000000 -1.000000 0.000000
vn 0.000000 -1.000000 0.000000
vn 0.000000 -1.000000 0.000000
vn -0.560869 0.000000 -0.827905
vn -0.673739 0.000000 -0.738970
vn -0.525957 0.000000 -0.850511
vn 0.141606 0.000000 -0.989923
vn 0.639136 0.000000 -0.769094
vn 0.893421 0.000000 -0.449220
vn 0.970766 0.000000 -0.240028
vn 0.987772 0.000000 -0.155906
vn 0.000000 -1.000000 -0.000000
vn 0.000000 -1.000000 0.000000
vn 0.000000 -1.000000 -0.000000
vn 0.873594 0.000000 -0.486655
vn 0.873594 0.000000 -0.486655
vn 0.000000 -1.000000 0.000000
vn 0.000000 -1.000000 0.000000
vn 0.000000 -1.000000 0.000000
vn 0.000000 -1.000000 0.000000
vn 0.000000 -1.000000 0.000000
vn 0.873594 0.000000 -0.486655
vn -0.761823 0.000000 -0.647786
vn -0.761823 0.000000 -0.647786
vn -0.761822 0.000000 -0.647786
vn -0.078729 0.000000 0.996896
vn -0.078729 0.000000 0.996896
vn -0.078729 0.000000 0.996896
vn -0.078729 0.000000 0.996896
vn -0.078729 0.000000 0.996896
vn -0.078729 0.000000 0.996896
vn -0.078729 0.000000 0.996896
vn -0.078729 0.000000 0.996896
vn -0.078729 0.000000 0.996896
vn -0.078729 0.000000 0.996896
vn -0.078729 0.000000 0.996896
vn -0.078729 0.000000 0.996896
vn -0.078729 0.000000 0.996896
vn -0.078729 0.000000 0.996896
vn -0.078729 0.000000 0.996896
vn -0.078729 0.000000 0.996896
vn -0.078729 0.000000 0.996896
vn -0.078729 0.000000 0.996896
g steak2d
usemtl initialShadingGroup
f 1/1/1 2/2/2 18/22/3 19/24/4
f 2/2/2 3/3/5 17/21/6 18/22/3
f 3/3/5 13/17/7 24/30/8 17/21/6
f 4/4/9 15/19/10 22/28/11 23/29/12
f 5/5/13 6/6/14 20/25/15 21/27/16
f 7/7/17 8/8/18 26/33/19 25/32/20
f 8/8/18 9/9/21 27/34/22 26/33/19
f 9/9/21 14/18/23 33/41/24 27/34/22
f 10/10/25 16/20/26 34/42/27 28/35/28
f 11/11/29 12/12/30 30/37/31 29/36/32
f 24/30/8 13/17/7 4/4/9 23/29/12
f 22/28/11 15/19/10 5/5/13 21/27/16
f 18/22/3 17/21/6 9/9/33 8/8/34
f 19/24/4 18/22/3 8/8/34 7/7/35
f 20/26/36 36/44/37 30/38/38 12/13/39
f 21/27/16 20/25/15 12/12/40 11/11/41
f 16/20/42 22/28/11 21/27/16 11/11/41
f 23/29/12 22/28/11 16/20/42 10/10/43
f 14/18/44 24/30/8 23/29/12 10/10/43
f 17/21/6 24/30/8 14/18/44 9/9/33
f 31/39/45 36/44/37 20/26/36 6/14/46
f 35/43/47 32/40/48 1/16/49 19/23/50
f 28/35/28 33/41/24 14/18/23 10/10/25
f 29/36/32 34/42/27 16/20/26 11/11/29
f 25/31/51 35/43/47 19/23/50 7/15/52
f 37/46/53 55/54/54 54/53/55 38/45/56
f 38/45/56 54/53/55 53/55/57 39/47/58
f 39/47/58 53/55/57 60/56/59 49/48/60
f 40/50/61 59/58/62 58/57/63 51/49/64
f 41/52/65 57/60/66 56/59/67 42/51/68
f 43/61/69 25/64/20 26/63/19 44/62/70
f 44/62/70 26/63/19 27/66/22 45/65/71
f 45/65/71 27/66/22 33/68/24 50/67/72
f 46/69/73 28/72/28 34/71/27 52/70/74
f 47/73/75 29/76/32 30/75/31 48/74/76
f 60/56/59 59/58/62 40/50/61 49/48/60
f 58/57/63 57/60/66 41/52/65 51/49/64
f 54/53/55 44/62/77 45/65/78 53/55/57
f 55/54/54 43/61/79 44/62/77 54/53/55
f 56/77/80 48/80/81 30/79/38 36/78/37
f 57/60/66 47/73/82 48/74/83 56/59/67
f 52/70/84 47/73/82 57/60/66 58/57/63
f 59/58/62 46/69/85 52/70/84 58/57/63
f 50/67/86 46/69/85 59/58/62 60/56/59
f 53/55/57 45/65/78 50/67/86 60/56/59
f 31/81/45 42/82/87 56/77/80 36/78/37
f 35/83/47 55/86/88 37/85/89 32/84/48
f 28/72/28 46/69/73 50/67/72 33/68/24
f 29/76/32 47/73/75 52/70/74 34/71/27
f 25/87/51 43/88/90 55/86/88 35/83/47
f 2/2/91 1/16/92 32/84/93 37/46/94 38/45/95 39/47/96 49/48/97 40/50/98 51/49/99 41/52/100 42/82/101 31/39/102 6/6/103 5/5/104 15/19/105 4/4/106 13/17/107 3/3/108
